<?xml version="1.0" encoding="UTF-8"?>
<!-- Generator: visioncortex VTracer 0.6.3 -->
<svg version="1.1" xmlns="http://www.w3.org/2000/svg" width="1280" height="600">
<path d="M0 0 C422.4 0 844.8 0 1280 0 C1280 141.9 1280 283.8 1280 430 C1261.66 445.1 1261.66 445.1 1255.3 450.16 C1252.81 452.15 1250.34 454.17 1247.88 456.19 C1236.56 465.46 1225.22 474.67 1213.7 483.67 C1212.02 484.99 1210.35 486.31 1208.68 487.64 C1198.98 495.35 1189.04 502.72 1179 510 C1178.3 510.51 1177.59 511.02 1176.86 511.55 C1137.32 540.15 1094.77 564.9 1049 582 C1048.24 582.29 1047.49 582.58 1046.71 582.87 C1031.11 588.81 1014.95 592.89 998.62 596.25 C997.9 596.4 997.18 596.55 996.44 596.71 C980.55 599.82 964.81 600.37 948.65 600.37 C945.1 600.37 941.55 600.41 938.01 600.45 C915.46 600.56 893.57 597.63 872 591 C870.87 590.66 870.87 590.66 869.72 590.32 C846.38 583.23 824.1 571.72 804 558 C802.52 557.01 801.05 556.01 799.57 555.02 C795.68 552.39 791.83 549.71 788 547 C787.09 546.36 786.17 545.71 785.23 545.05 C783.44 543.76 781.71 542.39 780 541 C780 540.34 780 539.68 780 539 C779.47 538.94 778.93 538.88 778.38 538.81 C774.96 537.64 772.6 535.36 769.94 533 C768.77 531.99 767.6 530.97 766.43 529.96 C765.85 529.46 765.27 528.95 764.67 528.43 C762.35 526.44 759.96 524.53 757.56 522.62 C751.87 518 746.56 513.01 741.21 508 C738.83 505.76 736.41 503.57 733.94 501.44 C728.16 496.44 722.6 491.19 717 486 C712.67 481.99 708.34 477.99 704 474 C703.11 473.18 702.23 472.37 701.31 471.53 C694.64 465.45 687.7 459.77 680.48 454.35 C679.88 453.9 679.29 453.44 678.67 452.98 C677.49 452.09 676.3 451.2 675.11 450.32 C673.71 449.26 672.35 448.14 671 447 C671 446.34 671 445.68 671 445 C670.42 444.87 669.83 444.75 669.23 444.62 C667.02 444 665.34 443.21 663.36 442.07 C662.68 441.69 662 441.3 661.3 440.91 C660.6 440.51 659.91 440.1 659.19 439.69 C658.5 439.3 657.81 438.91 657.11 438.5 C651.72 435.43 651.72 435.43 649.1 433.87 C643.84 430.76 638.9 429.38 633 428 C632.3 427.83 631.61 427.67 630.89 427.5 C628.55 426.95 626.21 426.41 623.88 425.88 C623.14 425.7 622.4 425.53 621.63 425.36 C617.08 424.34 612.6 423.67 607.95 423.25 C606 423 606 423 603 422 C580.88 422.3 559.28 427.37 537.91 432.54 C535.19 433.2 532.45 433.83 529.72 434.46 C520.02 436.71 510.38 439.19 500.75 441.74 C476.64 448.13 454.03 452.25 429 452 C429 451.34 429 450.68 429 450 C427.97 450.33 426.94 450.66 425.88 451 C408.47 455.21 392.04 449.37 377 441 C377 440.34 377 439.68 377 439 C376.33 438.82 375.66 438.63 374.96 438.45 C370.7 436.37 367.85 433.24 364.56 429.88 C363.92 429.24 363.28 428.6 362.62 427.94 C358.3 423.58 354.57 418.98 351 414 C344.67 405.39 335.11 398.48 325 395 C311.91 393.93 299.51 401.15 288.01 406.63 C253.49 423.07 215.79 428.02 178.93 415.44 C165.33 410.57 152.28 404.12 139.98 396.55 C123.9 386.68 107.57 380.41 89 377 C89 376.67 89 376.34 89 376 C62.42 376.51 38.74 389.85 20 408 C19.13 408.9 18.26 409.81 17.37 410.74 C15 413 15 413 12 414 C11.3 415.32 10.64 416.65 10 418 C8.52 419.95 6.99 421.86 5.44 423.75 C4.63 424.73 3.83 425.72 3 426.73 C2.34 427.48 1.68 428.23 1 429 C0.67 429 0.34 429 0 429 C0 287.43 0 145.86 0 0 Z " fill="#9633F0" transform="translate(0,0)"/>
<path d="M0 0 C231 0 462 0 700 0 C703.38 11.25 703.38 11.25 703.34 15.73 C703.34 17.23 703.34 17.23 703.34 18.76 C703.32 19.8 703.31 20.84 703.29 21.91 C703.29 23.01 703.28 24.11 703.28 25.23 C703.26 28.7 703.23 32.16 703.19 35.62 C703.17 37.99 703.16 40.35 703.15 42.71 C703.11 48.48 703.06 54.24 703 60 C701.35 60.33 699.7 60.66 698 61 C697.23 60 696.45 59 695.66 57.97 C694.61 56.67 693.55 55.37 692.5 54.06 C691.99 53.4 691.49 52.74 690.97 52.06 C688.19 48.68 686.21 46.62 681.78 45.93 C677.92 45.66 677.92 45.66 675 48 C674.02 55.34 676.2 60.75 678.84 67.55 C679.91 70.72 680.35 73.25 680.5 76.56 C680.73 80.06 680.98 80.98 683 84.06 C686.91 86.59 690.38 87.12 695 87 C696.49 86.5 696.49 86.5 698 86 C700.65 87.03 700.65 87.03 703 89 C703.63 91.93 703.63 91.93 703.64 95.6 C703.65 96.27 703.66 96.94 703.67 97.64 C703.69 99.9 703.68 102.16 703.66 104.42 C703.67 106.04 703.68 107.66 703.69 109.28 C703.72 113.69 703.72 118.09 703.7 122.49 C703.7 126.16 703.71 129.84 703.71 133.51 C703.73 142.17 703.73 150.84 703.71 159.5 C703.68 168.45 703.7 177.39 703.74 186.33 C703.77 194.01 703.78 201.68 703.77 209.36 C703.76 213.94 703.76 218.53 703.79 223.11 C703.81 227.42 703.8 231.73 703.77 236.05 C703.76 237.63 703.77 239.21 703.78 240.8 C703.8 242.96 703.78 245.11 703.76 247.28 C703.75 248.48 703.75 249.69 703.75 250.94 C703 254 703 254 700.15 256.34 C697 258 697 258 693.89 259.3 C690.13 261.51 688.58 264.33 686.69 268.12 C686.17 269.13 686.17 269.13 685.65 270.16 C683.18 275.2 681.54 279.3 682 285 C684.24 287.96 686.62 289.72 689.56 291.94 C692 294 692 294 694 297.19 C695.71 300.21 695.71 300.21 698.62 300.75 C699.41 300.83 700.19 300.92 701 301 C704.12 304.12 703.33 307.95 703.35 312.14 C703.37 313.09 703.38 314.04 703.39 315.01 C703.43 318.16 703.46 321.31 703.48 324.46 C703.48 325.54 703.49 326.62 703.5 327.73 C703.54 333.43 703.57 339.14 703.59 344.84 C703.61 350.72 703.68 356.6 703.76 362.48 C703.81 367.01 703.83 371.54 703.84 376.07 C703.85 378.23 703.87 380.4 703.91 382.56 C704.24 403.12 704.24 403.12 696.92 410.8 C692.87 415.45 692.73 420.62 692.75 426.56 C692.74 428.48 692.74 428.48 692.73 430.44 C692.98 433.77 693.56 436.02 695 439 C696.14 438.91 696.14 438.91 697.31 438.81 C700 439 700 439 701.81 440.06 C703.65 443.06 703.31 445.58 703 449 C702.34 449.66 701.68 450.32 701 451 C695.27 450.59 690.79 445.91 687 442 C683.15 438.57 678.87 435.75 674 434 C673.01 434.5 673.01 434.5 672 435 C669.45 433.62 667.1 432.07 664.75 430.38 C661.71 428.85 659.08 428.58 655.72 428.31 C649.13 427.56 642.65 425.83 636.2 424.36 C631.41 423.32 627.04 422.87 622.15 423 C620.04 423 618.08 422.8 616 422.5 C590.4 418.93 562.62 426.56 537.91 432.54 C535.19 433.2 532.45 433.83 529.72 434.46 C520.02 436.71 510.38 439.19 500.75 441.74 C476.64 448.13 454.03 452.25 429 452 C429 451.34 429 450.68 429 450 C427.97 450.33 426.94 450.66 425.88 451 C408.47 455.21 392.04 449.37 377 441 C377 440.34 377 439.68 377 439 C376.33 438.82 375.66 438.63 374.96 438.45 C370.7 436.37 367.85 433.24 364.56 429.88 C363.92 429.24 363.28 428.6 362.62 427.94 C358.3 423.58 354.57 418.98 351 414 C344.67 405.39 335.11 398.48 325 395 C311.91 393.93 299.51 401.15 288.01 406.63 C253.49 423.07 215.79 428.02 178.93 415.44 C165.33 410.57 152.28 404.12 139.98 396.55 C123.9 386.68 107.57 380.41 89 377 C89 376.67 89 376.34 89 376 C62.42 376.51 38.74 389.85 20 408 C19.13 408.9 18.26 409.81 17.37 410.74 C15 413 15 413 12 414 C11.3 415.32 10.64 416.65 10 418 C8.52 419.95 6.99 421.86 5.44 423.75 C4.63 424.73 3.83 425.72 3 426.73 C2.34 427.48 1.68 428.23 1 429 C0.67 429 0.34 429 0 429 C0 287.43 0 145.86 0 0 Z " fill="#7C32FD" transform="translate(0,0)"/>
<path d="M0 0 C92.73 0 185.46 0 281 0 C281.69 107.34 281.69 107.34 281.83 152.17 C281.86 162.43 281.9 172.69 281.93 182.95 C281.94 184.88 281.94 184.88 281.95 186.84 C282.02 207.59 282.16 228.35 282.31 249.1 C282.47 270.4 282.57 291.7 282.6 313 C282.62 326.14 282.7 339.28 282.83 352.42 C282.92 361.44 282.95 370.45 282.93 379.46 C282.92 384.66 282.94 389.86 283.03 395.06 C283.58 427.89 283.58 427.89 277.27 435.48 C273.85 438.68 270.22 440.98 266 443 C263.21 444.39 260.97 446.28 258.62 448.31 C257.86 448.92 257.09 449.53 256.3 450.16 C253.81 452.15 251.34 454.17 248.88 456.19 C237.56 465.46 226.22 474.67 214.7 483.67 C213.02 484.99 211.35 486.31 209.68 487.64 C199.98 495.35 190.04 502.72 180 510 C179.3 510.51 178.59 511.02 177.86 511.55 C138.32 540.15 95.77 564.9 50 582 C49.24 582.29 48.49 582.58 47.71 582.87 C31.77 588.94 14.95 593.89 -2 596 C-2.33 595.34 -2.66 594.68 -3 594 C-2.34 594 -1.68 594 -1 594 C2.59 586.05 3.26 578.63 2.63 570.03 C1.89 557.5 1.89 545 1.93 532.45 C1.94 529.97 1.94 527.49 1.95 525.02 C1.96 519.73 1.97 514.44 1.99 509.16 C2.01 500.8 2.02 492.44 2.03 484.08 C2.04 481.21 2.04 478.34 2.05 475.47 C2.05 474.75 2.05 474.03 2.05 473.3 C2.06 465.18 2.07 457.06 2.09 448.95 C2.09 448.21 2.09 447.47 2.09 446.71 C2.12 434.66 2.15 422.62 2.18 410.58 C2.21 398.18 2.23 385.77 2.24 373.37 C2.25 365.74 2.27 358.11 2.29 350.47 C2.32 344.64 2.32 338.81 2.32 332.98 C2.32 330.58 2.33 328.19 2.34 325.8 C2.36 322.54 2.36 319.28 2.35 316.02 C2.36 315.07 2.37 314.12 2.38 313.14 C2.35 308.32 2.27 304.84 -1 301 C-3.7 299.97 -3.7 299.97 -6.69 299.69 C-8.18 299.48 -8.18 299.48 -9.7 299.26 C-10.84 299.13 -10.84 299.13 -12 299 C-12 298.34 -12 297.68 -12 297 C-8.7 296.34 -5.4 295.68 -2 295 C-1.67 293.02 -1.34 291.04 -1 289 C-1.88 288.95 -2.76 288.9 -3.67 288.85 C-4.83 288.78 -5.99 288.7 -7.19 288.62 C-8.34 288.56 -9.48 288.49 -10.67 288.41 C-13.83 288.02 -16.17 287.44 -19 286 C-21.58 280.85 -20.62 272.93 -18.88 267.56 C-17.09 263.58 -14.72 261.32 -11 259 C-8.28 258.33 -5.82 258.18 -3 258 C-0.2 257.88 -0.2 257.88 2 257 C4.08 253.05 4.25 249.63 4.26 245.21 C4.26 244.55 4.27 243.88 4.27 243.2 C4.28 241.02 4.27 238.84 4.27 236.66 C4.27 235.14 4.27 233.62 4.27 232.09 C4.27 228.91 4.27 225.72 4.26 222.53 C4.25 218.45 4.26 214.38 4.27 210.31 C4.28 207.16 4.27 204.02 4.27 200.87 C4.27 199.37 4.27 197.87 4.27 196.37 C4.28 194.26 4.27 192.15 4.26 190.05 C4.26 188.85 4.26 187.66 4.25 186.43 C3.98 182.72 3.08 179.54 2 176 C1.82 173.45 1.74 170.9 1.73 168.34 C1.73 167.64 1.73 166.93 1.73 166.2 C1.73 164.72 1.73 163.24 1.74 161.76 C1.75 159.51 1.74 157.26 1.73 155 C1.73 153.55 1.73 152.11 1.73 150.66 C1.74 149.35 1.74 148.05 1.74 146.71 C2 143 2 143 3 140 C4.53 134.83 4.28 129.58 4.26 124.22 C4.26 123.06 4.27 121.89 4.27 120.68 C4.28 116.83 4.27 112.98 4.27 109.13 C4.27 106.45 4.27 103.76 4.27 101.08 C4.28 95.46 4.27 89.84 4.26 84.21 C4.25 77.73 4.25 71.25 4.26 64.77 C4.27 59.18 4.27 53.6 4.27 48.02 C4.27 44.69 4.27 41.37 4.27 38.04 C4.28 34.33 4.27 30.62 4.26 26.9 C4.26 25.81 4.27 24.72 4.27 23.6 C4.23 16.5 4.05 10.08 0 4 C0 2.68 0 1.36 0 0 Z " fill="#9F34EC" transform="translate(999,0)"/>
<path d="M0 0 C92.73 0 185.46 0 281 0 C284.38 11.25 284.38 11.25 284.34 15.73 C284.34 16.73 284.34 17.73 284.34 18.76 C284.32 19.8 284.31 20.84 284.29 21.91 C284.29 23.01 284.28 24.11 284.28 25.23 C284.26 28.7 284.23 32.16 284.19 35.62 C284.17 37.99 284.16 40.35 284.15 42.71 C284.11 48.48 284.06 54.24 284 60 C282.35 60.33 280.7 60.66 279 61 C278.23 60 277.45 59 276.66 57.97 C275.61 56.67 274.55 55.37 273.5 54.06 C272.99 53.4 272.49 52.74 271.97 52.06 C269.19 48.68 267.21 46.62 262.78 45.93 C258.92 45.66 258.92 45.66 256 48 C255.02 55.34 257.2 60.75 259.84 67.55 C260.91 70.72 261.35 73.25 261.5 76.56 C261.73 80.06 261.98 80.98 264 84.06 C267.91 86.59 271.38 87.12 276 87 C277.49 86.5 277.49 86.5 279 86 C281.65 87.03 281.65 87.03 284 89 C284.63 91.93 284.63 91.93 284.64 95.6 C284.65 96.27 284.66 96.94 284.67 97.64 C284.69 99.9 284.68 102.16 284.66 104.42 C284.67 106.04 284.68 107.66 284.69 109.28 C284.72 113.69 284.72 118.09 284.7 122.49 C284.7 126.16 284.71 129.84 284.71 133.51 C284.73 142.17 284.73 150.84 284.71 159.5 C284.68 168.45 284.7 177.39 284.74 186.33 C284.77 194.01 284.78 201.68 284.77 209.36 C284.76 213.94 284.76 218.53 284.79 223.11 C284.81 227.42 284.8 231.73 284.77 236.05 C284.76 237.63 284.77 239.21 284.78 240.8 C284.8 242.96 284.78 245.11 284.76 247.28 C284.75 248.48 284.75 249.69 284.75 250.94 C284 254 284 254 281.15 256.34 C278 258 278 258 274.89 259.3 C271.13 261.51 269.58 264.33 267.69 268.12 C267.35 268.8 267 269.47 266.65 270.16 C264.18 275.2 262.54 279.3 263 285 C265.24 287.96 267.62 289.72 270.56 291.94 C273 294 273 294 275 297.19 C276.71 300.21 276.71 300.21 279.62 300.75 C280.41 300.83 281.19 300.92 282 301 C285.12 304.12 284.33 307.95 284.35 312.14 C284.37 313.09 284.38 314.04 284.39 315.01 C284.43 318.16 284.46 321.31 284.48 324.46 C284.48 325.54 284.49 326.62 284.5 327.73 C284.54 333.43 284.57 339.14 284.59 344.84 C284.61 350.72 284.68 356.6 284.76 362.48 C284.81 367.01 284.83 371.54 284.84 376.07 C284.85 378.23 284.87 380.4 284.91 382.56 C285.24 403.12 285.24 403.12 277.92 410.8 C273.87 415.45 273.73 420.62 273.75 426.56 C273.74 427.84 273.74 429.12 273.73 430.44 C273.98 433.77 274.56 436.02 276 439 C277.14 438.91 277.14 438.91 278.31 438.81 C281 439 281 439 282.81 440.06 C284.65 443.06 284.31 445.58 284 449 C283.34 449.66 282.68 450.32 282 451 C276.27 450.59 271.79 445.91 268 442 C264.15 438.57 259.87 435.75 255 434 C254.34 434.33 253.68 434.66 253 435 C250.45 433.62 248.1 432.07 245.75 430.38 C242.71 428.85 240.08 428.58 236.72 428.31 C230.13 427.56 223.65 425.83 217.2 424.36 C212.41 423.32 208.04 422.87 203.15 423 C201.04 423 199.08 422.8 197 422.5 C171.4 418.93 143.62 426.56 118.91 432.54 C116.19 433.2 113.45 433.83 110.72 434.46 C101.02 436.71 91.38 439.19 81.75 441.74 C60.65 447.33 40.88 451.38 19 452 C20.62 449.97 20.62 449.97 23 448 C25.87 447.93 25.87 447.93 29 448.44 C33.42 449.24 33.42 449.24 37.38 447.54 C38.18 446.78 38.18 446.78 39 446 C38.58 442.99 38.16 440.36 36.94 437.56 C34.74 431.56 36.12 426.6 38.52 420.95 C40.7 416.6 43.22 412.47 45.83 408.35 C46.21 407.75 46.59 407.14 46.98 406.52 C47.32 405.98 47.66 405.45 48.01 404.9 C50.52 400.08 51.25 395.7 51.25 390.31 C51.26 389.66 51.26 389.01 51.26 388.34 C51.27 386.16 51.27 383.99 51.26 381.81 C51.26 380.23 51.27 378.66 51.27 377.08 C51.28 372.75 51.28 368.41 51.28 364.08 C51.27 359.41 51.28 354.74 51.29 350.06 C51.3 340.91 51.3 331.76 51.3 322.6 C51.3 315.17 51.3 307.73 51.31 300.29 C51.31 299.23 51.31 298.18 51.31 297.09 C51.31 294.94 51.31 292.79 51.31 290.64 C51.32 270.48 51.32 250.32 51.31 230.17 C51.31 211.71 51.32 193.26 51.34 174.81 C51.36 155.87 51.37 136.94 51.36 118 C51.36 107.36 51.36 96.73 51.38 86.09 C51.39 77.04 51.39 67.99 51.38 58.93 C51.37 54.31 51.37 49.69 51.38 45.07 C51.4 40.85 51.39 36.62 51.38 32.39 C51.38 30.86 51.38 29.33 51.39 27.8 C51.4 25.72 51.39 23.64 51.37 21.56 C51.37 20.41 51.37 19.25 51.37 18.06 C50.95 14.62 50.11 12.73 48 10 C44.05 8.68 40.25 8.84 36.13 8.82 C34.34 8.8 32.55 8.78 30.76 8.75 C27.94 8.72 25.12 8.69 22.3 8.67 C19.58 8.66 16.86 8.62 14.13 8.57 C13.29 8.58 12.45 8.58 11.59 8.58 C7.61 8.5 5.44 8.25 1.93 6.21 C0 4 0 4 0 0 Z " fill="#8332FB" transform="translate(419,0)"/>
<path d="M0 0 C49.17 0 98.34 0 149 0 C149.37 54.54 149.69 109.08 149.87 163.62 C149.89 170.06 149.91 176.51 149.93 182.95 C149.94 184.87 149.94 184.87 149.95 186.83 C150.02 207.59 150.16 228.34 150.31 249.1 C150.47 270.4 150.57 291.7 150.6 313 C150.62 326.14 150.7 339.28 150.83 352.42 C150.92 361.44 150.95 370.45 150.93 379.46 C150.92 384.66 150.94 389.86 151.03 395.06 C151.58 427.89 151.58 427.89 145.27 435.48 C141.85 438.68 138.22 440.98 134 443 C131.21 444.39 128.97 446.28 126.62 448.31 C125.47 449.23 125.47 449.23 124.3 450.16 C121.81 452.15 119.34 454.17 116.88 456.19 C105.56 465.46 94.22 474.67 82.7 483.67 C81.02 484.99 79.35 486.31 77.68 487.64 C62.56 499.66 46.9 511.01 31 522 C30.1 522.63 29.2 523.25 28.27 523.9 C25.39 525.88 22.51 527.85 19.62 529.81 C18.71 530.44 17.8 531.07 16.87 531.72 C16.02 532.29 15.17 532.87 14.29 533.46 C13.53 533.97 12.78 534.49 12 535.02 C10 536 10 536 7 535 C8.75 530.12 8.75 530.12 11 529 C11 528.34 11 527.68 11 527 C10.34 527 9.68 527 9 527 C9 526.34 9 525.68 9 525 C9.66 525 10.32 525 11 525 C11 524.01 11 523.02 11 522 C10.01 522 9.02 522 8 522 C8.49 519.53 8.49 519.53 9 517 C12.33 516.33 15.67 515.67 19 515 C19 350.66 19 186.32 19 17 C14.27 15.95 14.27 15.95 10.5 15.75 C6.23 14.84 4.79 13.27 2 10 C1.34 9.34 0.68 8.68 0 8 C0 5.36 0 2.72 0 0 Z " fill="#A935E5" transform="translate(1131,0)"/>
<path d="M0 0 C33.99 0 67.98 0 103 0 C102 8 102 8 100.95 11.06 C99.82 14.54 99.75 17.45 99.74 21.12 C99.74 21.81 99.73 22.5 99.73 23.22 C99.72 25.53 99.72 27.84 99.73 30.15 C99.72 31.81 99.72 33.47 99.71 35.13 C99.7 38.7 99.7 42.27 99.7 45.84 C99.69 51.48 99.68 57.13 99.65 62.77 C99.61 76.78 99.57 90.79 99.55 104.8 C99.54 115.7 99.51 126.6 99.47 137.5 C99.45 143.11 99.44 148.72 99.44 154.33 C99.44 157.82 99.43 161.3 99.41 164.79 C99.4 166.41 99.4 168.03 99.41 169.65 C99.41 171.85 99.4 174.06 99.39 176.26 C99.38 178.12 99.38 178.12 99.38 180.01 C99 183 99 183 97.63 184.84 C96 186 96 186 93.5 187.31 C90.12 189.6 89.3 191.1 88 195 C87.31 201.85 87.26 208.07 91 214 C95.07 216.64 100.25 216.61 105 217 C105 218.32 105 219.64 105 221 C103.78 222.15 103.78 222.15 102.54 223.32 C98.08 228.38 99.34 235.58 99.42 241.92 C99.42 243.45 99.41 244.98 99.41 246.51 C99.4 250.66 99.43 254.8 99.46 258.94 C99.49 263.29 99.49 267.63 99.49 271.97 C99.5 279.25 99.53 286.54 99.57 293.83 C99.62 304.1 99.65 314.38 99.66 324.65 C99.68 331.77 99.7 338.89 99.72 346.01 C99.72 347.74 99.73 349.46 99.73 351.19 C99.75 356.11 99.77 361.03 99.8 365.95 C99.8 367.44 99.81 368.92 99.81 370.41 C99.82 372.45 99.83 374.48 99.85 376.52 C99.85 377.65 99.86 378.79 99.86 379.97 C99.92 382.98 99.92 382.98 100.56 385.78 C101.13 388.69 100.33 389.71 98.88 392.25 C96.62 397.41 97.04 401.42 98 406.81 C98.12 407.54 98.25 408.27 98.38 409.02 C99.33 413.67 100.81 416.38 104 420 C103.94 422.12 103.94 422.12 103 424 C102.24 424.67 102.24 424.67 101.47 425.35 C99.61 427.44 99.62 428.47 99.62 431.23 C99.61 432.52 99.61 432.52 99.6 433.84 C99.61 435.26 99.61 435.26 99.62 436.7 C99.61 437.7 99.6 438.69 99.6 439.72 C99.59 441.88 99.59 444.04 99.59 446.21 C99.59 449.63 99.58 453.06 99.56 456.49 C99.52 463.76 99.51 471.04 99.5 478.31 C99.49 486.73 99.47 495.15 99.42 503.57 C99.41 506.95 99.41 510.32 99.42 513.69 C99.41 515.77 99.4 517.84 99.38 519.91 C99.39 521.32 99.39 521.32 99.4 522.75 C99.35 527.94 98.82 531.47 96 536 C94.09 535.27 94.09 535.27 92 534 C91.13 532.01 91.13 532.01 90.56 529.69 C89.24 525.23 87.48 523.16 84 520 C82.46 517.96 80.98 515.88 79.53 513.77 C77.78 511.74 76.52 510.9 74 510 C71.68 509.91 71.68 509.91 69.25 510.12 C63.8 510.27 60.64 508.75 56 506 C61.36 512.8 67.73 518.23 74.4 523.68 C75.82 524.85 77.24 526.03 78.65 527.21 C81.41 529.5 84.2 531.75 87 534 C87.62 534.5 88.25 535.01 88.89 535.53 C107.28 550.3 126.73 563.73 148 574 C149.06 574.53 150.12 575.07 151.22 575.62 C166.95 583.31 183.7 589.41 200.79 593.25 C203.94 593.99 206.95 594.93 210 596 C212.9 596.95 212.9 596.95 215.82 596.47 C218.41 595.91 220.12 596.22 222.69 596.81 C223.48 596.98 224.26 597.16 225.07 597.33 C227 598 227 598 228 600 C220 600.24 212.4 599.58 204.5 598.31 C203.36 598.13 202.23 597.95 201.05 597.77 C191.16 596.14 181.58 593.94 172 591 C170.87 590.66 170.87 590.66 169.72 590.32 C146.38 583.23 124.1 571.72 104 558 C102.52 557.01 101.05 556.01 99.57 555.02 C95.68 552.39 91.83 549.71 88 547 C87.09 546.36 86.17 545.71 85.23 545.05 C83.44 543.76 81.71 542.39 80 541 C80 540.34 80 539.68 80 539 C79.2 538.91 79.2 538.91 78.38 538.81 C74.96 537.64 72.6 535.36 69.94 533 C68.77 531.99 67.6 530.97 66.43 529.96 C65.85 529.46 65.27 528.95 64.67 528.43 C62.35 526.44 59.96 524.53 57.56 522.62 C51.87 518 46.56 513.01 41.21 508 C38.83 505.76 36.41 503.57 33.94 501.44 C28.16 496.44 22.6 491.19 17 486 C12.67 481.99 8.34 477.99 4 474 C3.11 473.18 2.23 472.37 1.31 471.53 C-5.36 465.45 -12.3 459.77 -19.52 454.35 C-20.12 453.9 -20.71 453.44 -21.33 452.98 C-22.51 452.09 -23.7 451.2 -24.89 450.32 C-26.29 449.26 -27.65 448.14 -29 447 C-29 446.34 -29 445.68 -29 445 C-29.58 444.87 -30.17 444.75 -30.77 444.62 C-32.98 444 -34.66 443.21 -36.64 442.07 C-37.32 441.69 -38 441.3 -38.7 440.91 C-39.74 440.3 -39.74 440.3 -40.81 439.69 C-41.5 439.3 -42.19 438.91 -42.89 438.5 C-48.28 435.43 -48.28 435.43 -50.9 433.87 C-56.16 430.76 -61.1 429.38 -67 428 C-67.7 427.83 -68.39 427.67 -69.11 427.5 C-71.45 426.95 -73.79 426.41 -76.12 425.88 C-76.86 425.7 -77.6 425.53 -78.37 425.36 C-83.56 424.2 -88.7 423.51 -94 423 C-94 422.67 -94 422.34 -94 422 C-91.75 421.97 -89.5 421.95 -87.25 421.94 C-86 421.93 -84.74 421.91 -83.45 421.9 C-80 422 -80 422 -77.86 422.57 C-75.92 423.16 -75.92 423.16 -73.65 422.48 C-70.28 421.87 -67.89 422.47 -64.56 423.25 C-62.72 423.67 -62.72 423.67 -60.84 424.1 C-59.57 424.4 -58.31 424.69 -57 425 C-54.54 425.55 -52.08 426.09 -49.62 426.62 C-48.48 426.88 -47.33 427.13 -46.14 427.39 C-43.53 427.9 -41.02 428.23 -38.38 428.44 C-34.48 429.09 -33.57 430.15 -31 433 C-29.68 433 -28.36 433 -27 433 C-19.03 436.06 -11.95 440.91 -6 447 C-4.14 448.79 -4.14 448.79 -2 450 C0.21 449.78 0.21 449.78 2 449 C2.17 445.58 2.17 445.58 2 442 C0.18 439.77 0.18 439.77 -2.44 439.69 C-5 439 -5 439 -6.64 436.91 C-9.55 430.68 -9.07 421.17 -6.94 414.62 C-5.95 412.45 -5.09 411.08 -3.3 409.47 C1.35 405.05 2.45 400.91 2.75 394.71 C2.83 389.63 2.77 384.55 2.68 379.46 C2.67 377.26 2.66 375.05 2.65 372.84 C2.63 367.06 2.56 361.27 2.48 355.49 C2.41 349.58 2.38 343.66 2.34 337.75 C2.27 326.17 2.15 314.58 2 303 C1.23 302.72 0.45 302.44 -0.34 302.14 C-3.72 300.69 -5.51 298.68 -8 296 C-10.5 293.43 -12.94 291.05 -15.75 288.81 C-18 287 -18 287 -19 285 C-19.05 278.53 -17.25 273.38 -14.12 267.81 C-13.79 267.14 -13.46 266.47 -13.12 265.78 C-9.22 258.73 -6.08 258.41 2 254 C2 199.55 2 145.1 2 89 C-2.64 86.52 -2.64 86.52 -6 88 C-8.34 87.84 -8.34 87.84 -10.94 87.38 C-11.79 87.24 -12.65 87.1 -13.53 86.96 C-16.92 85.64 -18.1 84.08 -20 81 C-20.69 77.8 -20.69 77.8 -21 74.31 C-21.53 69.72 -22.23 65.91 -24.12 61.69 C-26.14 57.1 -27.01 52.98 -26 48 C-24.5 45.88 -24.5 45.88 -22 45 C-17.25 45.09 -14.28 45.25 -10.85 48.65 C-9.9 49.73 -8.97 50.83 -8.06 51.94 C-7.58 52.49 -7.1 53.04 -6.61 53.61 C-4.84 55.65 -3.21 57.58 -2 60 C-0.35 60 1.3 60 3 60 C2.91 52.97 2.8 45.94 2.68 38.91 C2.64 36.52 2.61 34.13 2.58 31.74 C2.53 28.3 2.47 24.86 2.41 21.43 C2.4 20.36 2.39 19.29 2.38 18.19 C2.36 17.19 2.34 16.19 2.32 15.16 C2.31 14.28 2.29 13.4 2.28 12.5 C2.11 9.94 2.11 9.94 0.98 7.49 C0 5 0 5 0 0 Z " fill="#8E33F6" transform="translate(700,0)"/>
<path d="M0 0 C56.76 0 113.52 0 172 0 C175.38 11.25 175.38 11.25 175.34 15.73 C175.34 16.73 175.34 17.73 175.34 18.76 C175.32 19.8 175.31 20.84 175.29 21.91 C175.29 23.01 175.28 24.11 175.28 25.23 C175.26 28.7 175.23 32.16 175.19 35.62 C175.17 37.99 175.16 40.35 175.15 42.71 C175.11 48.48 175.06 54.24 175 60 C172.52 60.49 172.52 60.49 170 61 C169.23 60 168.45 59 167.66 57.97 C166.61 56.67 165.55 55.37 164.5 54.06 C163.99 53.4 163.49 52.74 162.97 52.06 C160.19 48.68 158.21 46.62 153.78 45.93 C149.92 45.66 149.92 45.66 147 48 C146.02 55.34 148.2 60.75 150.84 67.55 C151.91 70.72 152.35 73.25 152.5 76.56 C152.73 80.06 152.98 80.98 155 84.06 C158.91 86.59 162.38 87.12 167 87 C167.99 86.67 168.98 86.34 170 86 C172.65 87.03 172.65 87.03 175 89 C175.63 91.93 175.63 91.93 175.64 95.6 C175.65 96.27 175.66 96.94 175.67 97.64 C175.69 99.9 175.68 102.16 175.66 104.42 C175.67 106.04 175.68 107.66 175.69 109.28 C175.72 113.69 175.72 118.09 175.7 122.49 C175.7 126.16 175.71 129.84 175.71 133.51 C175.73 142.17 175.73 150.84 175.71 159.5 C175.68 168.45 175.7 177.39 175.74 186.33 C175.77 194.01 175.78 201.68 175.77 209.36 C175.76 213.94 175.76 218.53 175.79 223.11 C175.81 227.42 175.8 231.73 175.77 236.05 C175.76 237.63 175.77 239.21 175.78 240.8 C175.8 242.96 175.78 245.11 175.76 247.28 C175.75 248.48 175.75 249.69 175.75 250.94 C175 254 175 254 172.15 256.34 C169 258 169 258 165.89 259.3 C162.13 261.51 160.58 264.33 158.69 268.12 C158.35 268.8 158 269.47 157.65 270.16 C155.18 275.2 153.54 279.3 154 285 C156.24 287.96 158.62 289.72 161.56 291.94 C164 294 164 294 166 297.19 C167.71 300.21 167.71 300.21 170.62 300.75 C171.41 300.83 172.19 300.92 173 301 C176.12 304.12 175.33 307.95 175.35 312.14 C175.37 313.09 175.38 314.04 175.39 315.01 C175.43 318.16 175.46 321.31 175.48 324.46 C175.48 325.54 175.49 326.62 175.5 327.73 C175.54 333.43 175.57 339.14 175.59 344.84 C175.61 350.72 175.68 356.6 175.76 362.48 C175.81 367.01 175.83 371.54 175.84 376.07 C175.85 378.23 175.87 380.4 175.91 382.56 C176.24 403.12 176.24 403.12 168.92 410.8 C164.87 415.45 164.73 420.62 164.75 426.56 C164.74 427.84 164.74 429.12 164.73 430.44 C164.98 433.77 165.56 436.02 167 439 C168.14 438.91 168.14 438.91 169.31 438.81 C172 439 172 439 173.81 440.06 C175.65 443.06 175.31 445.58 175 449 C174.34 449.66 173.68 450.32 173 451 C167.27 450.59 162.79 445.91 159 442 C155.15 438.57 150.87 435.75 146 434 C145.34 434.33 144.68 434.66 144 435 C141.45 433.62 139.1 432.07 136.75 430.38 C133.71 428.85 131.08 428.58 127.72 428.31 C121.13 427.56 114.65 425.83 108.2 424.36 C107.37 424.18 106.54 424 105.69 423.81 C104.64 423.57 104.64 423.57 103.57 423.33 C101.3 423.04 99.24 422.98 96.96 423.01 C91.25 423.07 85.62 422.53 79.94 422 C78.88 421.9 77.82 421.81 76.74 421.71 C74.16 421.48 71.58 421.24 69 421 C69.51 420.27 70.03 419.53 70.55 418.78 C72.21 416.19 72.21 416.19 71.82 413.75 C71.48 412.67 71.48 412.67 71.12 411.56 C70.09 407.65 69.66 404.94 71 401 C73.2 398.38 74.94 396.44 78.12 395.12 C81.24 393.26 82.1 390.37 83 387 C83.44 382.46 83.4 377.94 83.37 373.38 C83.38 371.98 83.38 370.59 83.39 369.19 C83.4 365.37 83.39 361.54 83.38 357.72 C83.37 353.59 83.38 349.46 83.38 345.33 C83.39 337.25 83.39 329.16 83.37 321.08 C83.36 311.65 83.36 302.23 83.36 292.81 C83.37 275.99 83.36 259.17 83.34 242.35 C83.32 226.04 83.31 209.74 83.32 193.43 C83.32 175.67 83.32 157.9 83.31 140.14 C83.31 138.24 83.31 136.35 83.31 134.45 C83.31 133.52 83.31 132.58 83.3 131.62 C83.3 125.06 83.3 118.5 83.3 111.94 C83.31 103.94 83.3 95.93 83.29 87.93 C83.28 83.85 83.27 79.77 83.28 75.69 C83.28 71.94 83.28 68.2 83.27 64.46 C83.26 62.48 83.27 60.5 83.27 58.52 C83.82 45.19 83.82 45.19 79.57 33.18 C71.68 27.24 55.69 29.94 46.24 30.27 C44 30.34 41.75 30.38 39.5 30.42 C38.48 30.47 38.48 30.47 37.44 30.52 C33.56 30.56 32.16 30.14 29.18 27.55 C28.46 26.71 27.74 25.87 27 25 C23.29 23.03 20.16 22.79 16 22.69 C12.25 22.39 10.33 22.19 7.06 20.25 C3.21 14.18 0 7.25 0 0 Z " fill="#8832F7" transform="translate(528,0)"/>
<path d="M0 0 C31.68 0 63.36 0 96 0 C95 8 95 8 93.95 11.06 C92.82 14.54 92.75 17.45 92.74 21.12 C92.74 21.81 92.73 22.5 92.73 23.22 C92.72 25.53 92.72 27.84 92.73 30.15 C92.72 31.81 92.72 33.47 92.71 35.13 C92.7 38.7 92.7 42.27 92.7 45.84 C92.69 51.48 92.68 57.13 92.65 62.77 C92.61 76.78 92.57 90.79 92.55 104.8 C92.54 115.7 92.51 126.6 92.47 137.5 C92.45 143.11 92.44 148.72 92.44 154.33 C92.44 157.82 92.43 161.3 92.41 164.79 C92.4 166.41 92.4 168.03 92.41 169.65 C92.41 171.85 92.4 174.06 92.39 176.26 C92.38 178.12 92.38 178.12 92.38 180.01 C92 183 92 183 90.63 184.84 C89 186 89 186 86.5 187.31 C83.12 189.6 82.3 191.1 81 195 C80.31 201.85 80.26 208.07 84 214 C88.07 216.64 93.25 216.61 98 217 C98 218.32 98 219.64 98 221 C96.78 222.15 96.78 222.15 95.54 223.32 C91.08 228.38 92.34 235.58 92.42 241.92 C92.42 243.45 92.41 244.98 92.41 246.51 C92.4 250.66 92.43 254.8 92.46 258.94 C92.49 263.29 92.49 267.63 92.49 271.97 C92.5 279.25 92.53 286.54 92.57 293.83 C92.62 304.1 92.65 314.38 92.66 324.65 C92.68 331.77 92.7 338.89 92.72 346.01 C92.72 347.74 92.73 349.46 92.73 351.19 C92.75 356.11 92.77 361.03 92.8 365.95 C92.8 367.44 92.81 368.92 92.81 370.41 C92.82 372.45 92.83 374.48 92.85 376.52 C92.85 377.65 92.86 378.79 92.86 379.97 C92.92 382.98 92.92 382.98 93.56 385.78 C94.13 388.69 93.33 389.71 91.88 392.25 C89.62 397.41 90.04 401.42 91 406.81 C91.12 407.54 91.25 408.27 91.38 409.02 C92.33 413.67 93.81 416.38 97 420 C96.94 422.12 96.94 422.12 96 424 C95.24 424.67 95.24 424.67 94.47 425.35 C92.61 427.44 92.62 428.47 92.62 431.23 C92.61 432.52 92.61 432.52 92.6 433.84 C92.61 435.26 92.61 435.26 92.62 436.7 C92.61 437.7 92.6 438.69 92.6 439.72 C92.59 441.88 92.59 444.04 92.59 446.21 C92.59 449.63 92.58 453.06 92.56 456.49 C92.52 463.76 92.51 471.04 92.5 478.31 C92.49 486.73 92.47 495.15 92.42 503.57 C92.41 506.95 92.41 510.32 92.42 513.69 C92.41 515.77 92.4 517.84 92.38 519.91 C92.39 521.32 92.39 521.32 92.4 522.75 C92.35 527.94 91.82 531.47 89 536 C87.09 535.27 87.09 535.27 85 534 C84.13 532.01 84.13 532.01 83.56 529.69 C82.24 525.23 80.48 523.16 77 520 C75.46 517.96 73.98 515.88 72.53 513.77 C70.78 511.74 69.52 510.9 67 510 C64.68 509.91 64.68 509.91 62.25 510.12 C56.8 510.27 53.64 508.75 49 506 C54.36 512.8 60.73 518.23 67.4 523.68 C68.82 524.85 70.24 526.03 71.65 527.21 C74.41 529.5 77.2 531.75 80 534 C80.62 534.5 81.25 535.01 81.89 535.53 C100.28 550.3 119.73 563.73 141 574 C142.06 574.53 143.12 575.07 144.22 575.62 C159.95 583.31 176.7 589.41 193.79 593.25 C196.94 593.99 199.95 594.93 203 596 C205.9 596.95 205.9 596.95 208.82 596.47 C211.41 595.91 213.12 596.22 215.69 596.81 C216.48 596.98 217.26 597.16 218.07 597.33 C220 598 220 598 221 600 C213 600.24 205.4 599.58 197.5 598.31 C196.36 598.13 195.23 597.95 194.05 597.77 C184.16 596.14 174.58 593.94 165 591 C163.87 590.66 163.87 590.66 162.72 590.32 C139.38 583.23 117.1 571.72 97 558 C95.52 557.01 94.05 556.01 92.57 555.02 C88.68 552.39 84.83 549.71 81 547 C80.09 546.36 79.17 545.71 78.23 545.05 C76.44 543.76 74.71 542.39 73 541 C73 540.34 73 539.68 73 539 C72.2 538.91 72.2 538.91 71.38 538.81 C67.96 537.64 65.6 535.36 62.94 533 C61.77 531.99 60.6 530.97 59.43 529.96 C58.85 529.46 58.27 528.95 57.67 528.43 C55.35 526.44 52.96 524.53 50.56 522.62 C44.87 518 39.56 513.01 34.21 508 C31.83 505.76 29.41 503.57 26.94 501.44 C21.16 496.44 15.6 491.19 10 486 C5.67 481.99 1.34 477.99 -3 474 C-3.89 473.18 -4.77 472.37 -5.69 471.53 C-12.36 465.45 -19.3 459.77 -26.52 454.35 C-27.12 453.9 -27.71 453.44 -28.33 452.98 C-29.51 452.09 -30.7 451.2 -31.89 450.32 C-33.29 449.26 -34.65 448.14 -36 447 C-36 446.34 -36 445.68 -36 445 C-36.58 444.87 -37.17 444.75 -37.77 444.62 C-39.98 444 -41.66 443.21 -43.64 442.07 C-44.32 441.69 -45 441.3 -45.7 440.91 C-46.74 440.3 -46.74 440.3 -47.81 439.69 C-48.5 439.3 -49.19 438.91 -49.89 438.5 C-55.28 435.43 -55.28 435.43 -57.9 433.87 C-63.16 430.76 -68.1 429.38 -74 428 C-74.7 427.83 -75.39 427.67 -76.11 427.5 C-78.45 426.95 -80.79 426.41 -83.12 425.88 C-83.86 425.7 -84.6 425.53 -85.37 425.36 C-90.56 424.2 -95.7 423.51 -101 423 C-101 422.67 -101 422.34 -101 422 C-98.75 421.97 -96.5 421.95 -94.25 421.94 C-93 421.93 -91.74 421.91 -90.45 421.9 C-87 422 -87 422 -84.86 422.57 C-82.92 423.16 -82.92 423.16 -80.65 422.48 C-77.28 421.87 -74.89 422.47 -71.56 423.25 C-69.72 423.67 -69.72 423.67 -67.84 424.1 C-66.57 424.4 -65.31 424.69 -64 425 C-61.54 425.55 -59.08 426.09 -56.62 426.62 C-55.48 426.88 -54.33 427.13 -53.14 427.39 C-50.53 427.9 -48.02 428.23 -45.38 428.44 C-41.48 429.09 -40.57 430.15 -38 433 C-36.68 433 -35.36 433 -34 433 C-26.03 436.06 -18.95 440.91 -13 447 C-11.14 448.79 -11.14 448.79 -9 450 C-6.79 449.78 -6.79 449.78 -5 449 C-4.83 445.58 -4.83 445.58 -5 442 C-6.82 439.77 -6.82 439.77 -9.44 439.69 C-12 439 -12 439 -13.64 436.91 C-16.58 430.62 -16.05 421.09 -13.88 414.5 C-11.71 410.46 -9.17 407.28 -6 404 C-5.5 405.49 -5.5 405.49 -5 407 C-6.18 408.68 -6.18 408.68 -7.88 410.44 C-10.21 412.86 -11.69 414.57 -12 418 C-11.01 419.49 -11.01 419.49 -10 421 C-9.59 421.97 -9.17 422.94 -8.75 423.94 C-7.17 427.23 -7.17 427.23 -3.81 429.12 C-2.88 429.74 -1.96 430.36 -1 431 C-1 432.32 -1 433.64 -1 435 C-0.99 436.23 -0.98 437.45 -0.96 438.71 C-0.96 440.12 -0.95 441.53 -0.94 442.94 C-0.93 443.64 -0.92 444.34 -0.91 445.07 C-0.89 448.85 -1.09 452.33 -2 456 C0.31 457.98 2.62 459.96 5 462 C4.67 463.32 4.34 464.64 4 466 C4.99 466 5.98 466 7 466 C7 465.34 7 464.68 7 464 C9.38 463.88 9.38 463.88 12 464 C14 466 14 466 15 469.56 C17.17 475.53 21.65 479.74 27 483 C30.27 483.42 32.88 483.03 36 482 C38.23 485.35 38.19 486.54 38.25 490.44 C38.57 495.14 38.57 495.14 41.75 498.69 C44.91 499.96 46.68 500.12 50 500 C50.05 453.59 50.08 407.17 50.1 360.76 C50.1 355.28 50.11 349.81 50.11 344.33 C50.11 343.24 50.11 342.15 50.11 341.03 C50.12 323.36 50.14 305.69 50.15 288.03 C50.17 269.91 50.18 251.79 50.19 233.67 C50.19 222.48 50.2 211.3 50.22 200.11 C50.23 192.45 50.23 184.78 50.23 177.12 C50.23 172.69 50.23 168.26 50.24 163.84 C50.25 159.79 50.25 155.74 50.24 151.69 C50.24 150.22 50.24 148.76 50.25 147.29 C50.26 145.3 50.25 143.31 50.25 141.32 C50.25 140.21 50.25 139.1 50.25 137.96 C49.99 134.9 49.39 132.73 48 130 C44.13 127.58 39.85 127.69 35.4 127.54 C32.06 126.79 31.03 125.77 29 123 C27.98 120.13 27.35 117.23 26.75 114.25 C26.58 113.46 26.4 112.66 26.23 111.85 C25.8 109.9 25.4 107.95 25 106 C26.72 107.02 28.45 108.03 30.17 109.05 C36.78 112.48 45.77 111.09 53 111 C52.08 110.94 51.16 110.88 50.22 110.82 C47.69 110.64 45.15 110.46 42.62 110.26 C40.6 110.11 38.57 110 36.54 109.99 C33.41 109.91 31.4 109.35 29.04 107.3 C26.2 104.17 23.49 100.99 22 97 C22.38 94.75 22.38 94.75 23 93 C23.58 94.05 23.58 94.05 24.17 95.12 C24.69 96.03 25.21 96.94 25.75 97.88 C26.26 98.78 26.77 99.68 27.3 100.62 C29.06 103.08 30.21 103.94 33 105 C31.97 102 30.94 99.92 28.94 97.44 C27.11 95.14 26.42 93.85 26 91 C29.41 92.14 29.53 92.48 31.06 95.5 C32.42 98.33 32.42 98.33 35 100 C37.12 100.12 39.25 100.18 41.38 100.19 C42.52 100.2 43.66 100.22 44.84 100.23 C47.89 100.01 49.53 99.77 52 98 C56.1 89.65 55.85 82.56 52.95 73.85 C52.01 71.66 52.01 71.66 49 70 C46.2 69.64 46.2 69.64 43.12 69.69 C41.58 69.66 41.58 69.66 40.01 69.64 C34.63 70.29 31.07 73.62 27 77 C28.36 71.7 31.6 69.76 36 67 C35.67 65.68 35.34 64.36 35 63 C33.68 62.67 32.36 62.34 31 62 C36.63 60.1 41.7 59.63 47.62 59.62 C48.46 59.6 49.29 59.58 50.15 59.55 C54.18 59.53 56.42 59.65 59.93 61.79 C61.77 63.75 63.14 65.48 64.44 67.81 C66.12 70.74 67.74 72.7 70.25 74.94 C75.13 80.27 74.17 89.2 74 96 C73.67 96.33 73.34 96.66 73 97 C72.72 99.29 72.55 101.57 72.38 103.87 C72 106 72 106 70 108 C68.82 108.17 67.65 108.33 66.44 108.5 C65.3 108.67 64.17 108.83 63 109 C62.67 109.66 62.34 110.32 62 111 C63.44 110.91 64.88 110.8 66.31 110.69 C67.11 110.63 67.91 110.57 68.74 110.51 C71.45 109.9 72.38 109.23 74 107 C75.54 101.23 75.14 94.75 75.25 88.81 C75.28 87.5 75.3 86.19 75.33 84.83 C74.95 80.44 74.03 77.89 72 74 C71.22 73.38 70.43 72.76 69.62 72.12 C66.38 69.5 65.04 66.72 63.21 63.02 C62.02 60.7 62.02 60.7 59 59 C56.72 58.55 56.72 58.55 54.31 58.38 C53.5 58.3 52.7 58.23 51.86 58.15 C51.25 58.1 50.63 58.05 50 58 C50.33 57.34 50.66 56.68 51 56 C51.05 53.14 51.05 50.31 50.98 47.45 C50.97 46.6 50.95 45.75 50.93 44.87 C50.9 43.07 50.86 41.26 50.81 39.46 C50.75 36.71 50.71 33.96 50.67 31.21 C50.63 29.45 50.59 27.7 50.55 25.95 C50.54 25.13 50.53 24.31 50.52 23.46 C50.38 18.88 50.03 15.68 47 12 C43.11 10.7 39.41 10.84 35.35 10.82 C33.61 10.8 31.86 10.78 30.12 10.75 C27.37 10.72 24.62 10.69 21.88 10.67 C19.22 10.66 16.57 10.62 13.91 10.57 C12.69 10.58 12.69 10.58 11.44 10.58 C7.59 10.5 5.38 10.2 1.94 8.34 C0 6 0 6 0 0 Z " fill="#8B33F2" transform="translate(707,0)"/>
<path d="M0 0 C4.95 0 9.9 0 15 0 C15.12 13.62 15.12 13.62 14 17 C14.66 17 15.32 17 16 17 C16 25.58 16 34.16 16 43 C15.34 43 14.68 43 14 43 C14.33 43.99 14.66 44.98 15 46 C15.09 47.83 15.13 49.67 15.12 51.5 C15.13 52.94 15.13 52.94 15.13 54.41 C15 57 15 57 14 60 C14.66 60 15.32 60 16 60 C16 60.61 16.01 61.21 16.01 61.84 C16.12 76.59 16.22 91.35 16.34 106.1 C16.39 113.24 16.45 120.37 16.5 127.51 C16.54 134.39 16.6 141.27 16.65 148.15 C16.67 150.78 16.69 153.41 16.71 156.04 C16.73 159.71 16.76 163.38 16.79 167.05 C16.8 168.7 16.8 168.7 16.81 170.39 C16.82 171.38 16.83 172.38 16.84 173.4 C16.85 174.27 16.85 175.14 16.86 176.03 C16.78 178 16.78 178 18 179 C19.78 179.16 21.56 179.25 23.35 179.32 C24.43 179.36 25.51 179.4 26.62 179.44 C27.76 179.48 28.89 179.52 30.06 179.56 C31.2 179.61 32.34 179.65 33.52 179.69 C36.34 179.8 39.17 179.9 42 180 C42 180.66 42 181.32 42 182 C43.98 182.33 45.96 182.66 48 183 C48.33 184.98 48.66 186.96 49 189 C49.66 189 50.32 189 51 189 C51 247.08 51 305.16 51 365 C50.34 365 49.68 365 49 365 C48.96 365.93 48.92 366.86 48.88 367.81 C48 371 48 371 44.94 372.88 C43.97 373.25 43 373.62 42 374 C41.67 373.34 41.34 372.68 41 372 C39.95 372.02 39.95 372.02 38.88 372.04 C37.52 372.05 37.52 372.05 36.12 372.06 C34.77 372.08 34.77 372.08 33.38 372.1 C31 372 31 372 29 371 C23.87 370.04 19.68 370.08 15.04 372.62 C9.16 377.14 5.38 381.83 2.22 388.52 C1 391 1 391 -0.59 393.11 C-2.92 396.24 -3.41 399.21 -3 403 C-0.02 411.09 4.68 420.12 12 425 C18.42 426.33 24.56 425.93 31 425 C30.01 426.32 29.02 427.64 28 429 C29.21 430.21 29.21 430.21 30.44 431.44 C31.62 432.62 32.81 433.81 34 435 C35.35 435.23 36.7 435.41 38.06 435.56 C39.36 435.71 40.66 435.85 42 436 C42 436.66 42 437.32 42 438 C43.98 438.33 45.96 438.66 48 439 C48.33 440.98 48.66 442.96 49 445 C49.66 445 50.32 445 51 445 C51 482.95 51 520.9 51 560 C50.34 560 49.68 560 49 560 C48.94 560.74 48.88 561.49 48.81 562.25 C47.74 565.87 46.13 566.99 43 569 C42.01 569 41.02 569 40 569 C40 569.66 40 570.32 40 571 C30.95 569.14 23.01 563.54 15.77 558.06 C12.96 555.97 10.07 554.04 7.12 552.12 C-2.49 545.77 -11.44 538.55 -20.32 531.21 C-22.11 529.73 -23.9 528.27 -25.71 526.82 C-30.8 522.72 -35.77 518.51 -40.62 514.12 C-41.15 513.66 -41.67 513.2 -42.2 512.72 C-44.64 510.49 -45.94 509.19 -47 506 C-44.84 506.46 -43.1 506.95 -41.16 508.05 C-38.58 509.18 -36.92 509.08 -34.12 508.88 C-29.23 508.79 -26.72 509.63 -23 513 C-21.64 514.98 -20.3 516.98 -19 519 C-17.73 519.87 -17.73 519.87 -16.44 520.75 C-13.21 523.73 -12.78 526.55 -11.87 530.76 C-11.19 533.17 -11.19 533.17 -8.91 534.3 C-8.28 534.53 -7.65 534.76 -7 535 C-4.44 530.12 -4.72 525.4 -4.74 520.04 C-4.74 518.54 -4.74 518.54 -4.73 517.01 C-4.73 514.85 -4.72 512.68 -4.73 510.52 C-4.73 507.09 -4.71 503.67 -4.7 500.24 C-4.65 490.51 -4.63 480.77 -4.62 471.03 C-4.61 465.08 -4.59 459.12 -4.55 453.16 C-4.54 450.89 -4.54 448.62 -4.55 446.35 C-4.55 443.17 -4.54 440 -4.51 436.83 C-4.52 435.89 -4.53 434.95 -4.54 433.98 C-4.46 427.56 -4.46 427.56 -1.96 424.51 C-1.32 424.01 -0.67 423.51 0 423 C-0.08 420.41 -0.73 419.31 -2.44 417.38 C-4.59 414.09 -5.25 410.68 -5.94 406.88 C-6.08 406.12 -6.21 405.36 -6.36 404.58 C-7.22 398.96 -6.76 395.11 -3.88 390.08 C-2.72 387.33 -3.41 385.91 -4 383 C-4.1 380.84 -4.15 378.68 -4.16 376.52 C-4.17 375.21 -4.18 373.9 -4.19 372.56 C-4.2 371.11 -4.2 369.67 -4.21 368.22 C-4.22 366.7 -4.23 365.17 -4.24 363.64 C-4.27 358.64 -4.29 353.64 -4.31 348.63 C-4.31 347.78 -4.32 346.93 -4.32 346.05 C-4.35 338.01 -4.38 329.97 -4.39 321.93 C-4.41 311.66 -4.46 301.39 -4.53 291.11 C-4.57 283.88 -4.6 276.65 -4.61 269.42 C-4.61 265.11 -4.63 260.79 -4.66 256.48 C-4.7 252.42 -4.71 248.36 -4.7 244.3 C-4.7 242.81 -4.71 241.32 -4.73 239.84 C-4.9 227.21 -4.9 227.21 -0.96 222.69 C0.02 221.8 0.99 220.91 2 220 C2 219.34 2 218.68 2 218 C0.66 217.87 0.66 217.87 -0.7 217.74 C-1.87 217.6 -3.04 217.46 -4.25 217.31 C-5.41 217.18 -6.57 217.06 -7.77 216.93 C-11.74 215.79 -12.86 214.48 -15 211 C-17.24 205.06 -16.84 197.28 -14.69 191.44 C-12.47 188.24 -11.01 186.46 -7.44 184.84 C-4.7 183.19 -4.7 183.19 -4.38 180.03 C-4.38 178.81 -4.39 177.58 -4.39 176.32 C-4.38 175.63 -4.38 174.95 -4.37 174.25 C-4.36 171.95 -4.38 169.66 -4.4 167.37 C-4.4 165.73 -4.4 164.08 -4.39 162.44 C-4.38 158.9 -4.39 155.36 -4.41 151.81 C-4.44 146.2 -4.43 140.59 -4.42 134.98 C-4.4 124.06 -4.41 113.14 -4.43 102.23 C-4.46 88.37 -4.47 74.52 -4.44 60.66 C-4.43 55.09 -4.44 49.53 -4.47 43.96 C-4.48 40.48 -4.48 36.99 -4.47 33.51 C-4.47 31.91 -4.47 30.31 -4.49 28.7 C-4.57 18.4 -3.25 9.79 0 0 Z " fill="#8D33F6" transform="translate(803,0)"/>
<path d="M0 0 C12.54 0 25.08 0 38 0 C38.38 54.54 38.69 109.08 38.87 163.62 C38.89 170.06 38.91 176.51 38.93 182.95 C38.94 184.23 38.94 185.51 38.95 186.83 C39.02 207.59 39.16 228.34 39.31 249.1 C39.47 270.4 39.57 291.7 39.6 313 C39.62 326.14 39.7 339.28 39.83 352.42 C39.92 361.44 39.95 370.45 39.93 379.46 C39.92 384.66 39.94 389.86 40.03 395.06 C40.58 427.89 40.58 427.89 34.27 435.48 C30.85 438.68 27.22 440.98 23 443 C20.21 444.39 17.97 446.28 15.62 448.31 C14.87 448.91 14.12 449.5 13.35 450.11 C11.57 451.55 9.81 453.01 8.06 454.48 C7.07 455.31 6.08 456.14 5.06 457 C3.72 458.14 3.72 458.14 2.35 459.31 C0 461 0 461 -3 461 C-1.29 456.4 0.62 452.42 4.07 448.87 C6.6 445.1 6.53 441.92 6.44 437.54 C6.44 436.69 6.44 435.84 6.44 434.97 C6.43 432.12 6.4 429.28 6.36 426.43 C6.35 424.39 6.34 422.35 6.33 420.31 C6.31 414.77 6.26 409.23 6.2 403.69 C6.15 397.91 6.12 392.12 6.09 386.33 C6.02 375.37 5.94 364.41 5.84 353.45 C5.74 340.97 5.66 328.49 5.57 316.01 C5.41 290.34 5.21 264.67 5 239 C1.04 237.22 1.04 237.22 -2.94 237.88 C-3.62 238.25 -4.3 238.62 -5 239 C-11.17 239.73 -15.73 238.02 -21 235 C-23.38 233.05 -23.88 231.93 -24.27 228.92 C-24.48 224.19 -24.25 220.68 -21 217 C-16.82 214.08 -13.82 213.65 -8.95 214.47 C-7 215 -7 215 -3.81 216.62 C-0.6 218.2 0.67 218.14 4 217 C5.66 215.34 5.13 213.34 5.15 211.12 C5.15 210.42 5.15 209.72 5.15 209 C5.15 208.25 5.15 207.51 5.16 206.75 C5.17 204.24 5.17 201.74 5.18 199.23 C5.18 197.45 5.19 195.66 5.2 193.87 C5.21 188.99 5.22 184.11 5.23 179.24 C5.24 176.19 5.24 173.14 5.25 170.09 C5.27 160.54 5.28 150.99 5.29 141.44 C5.3 130.43 5.33 119.42 5.37 108.41 C5.4 99.9 5.41 91.39 5.42 82.87 C5.42 77.79 5.43 72.71 5.45 67.63 C5.48 62.84 5.48 58.05 5.47 53.26 C5.47 51.51 5.48 49.76 5.49 48.01 C5.57 36.95 4.36 27.57 1 17 C-0.8 11.06 -2.02 6.05 0 0 Z " fill="#B339E2" transform="translate(1242,0)"/>
<path d="M0 0 C9.43 0.17 15.47 4.58 22 11.12 C22.6 13.18 22.6 13.18 23.07 15.55 C23.59 18.18 24.15 20.57 25 23.12 C25.1 24.59 25.13 26.07 25.13 27.55 C25.13 28.7 25.13 28.7 25.14 29.86 C25.01 32.08 24.56 33.97 24 36.12 C23.74 40.33 23.66 43.15 25.07 47.12 C26.94 49.46 26.94 49.46 30.38 49.55 C33.86 49.31 33.86 49.31 36.32 48.12 C44.63 45.02 54.2 47.57 62 51.12 C64.49 53.57 64.98 54.95 65.39 58.46 C65.4 60.41 65.4 60.41 65.4 62.4 C65.41 63.1 65.41 63.8 65.41 64.52 C65.41 65.99 65.41 67.46 65.4 68.93 C65.38 71.18 65.39 73.42 65.41 75.67 C65.41 77.1 65.41 78.53 65.4 79.96 C65.4 81.26 65.4 82.56 65.39 83.9 C65 87.12 65 87.12 63.78 89.04 C60.13 91.26 55.72 90.59 51.57 90.55 C50.61 90.57 49.66 90.59 48.67 90.62 C41.75 90.61 41.75 90.61 38.4 88.39 C36.88 85.92 36.4 84.24 36.07 81.37 C35.31 76.78 33.86 73.86 31.23 70.07 C29.92 67.99 29.16 66.01 28.38 63.68 C27.93 62.5 27.47 61.33 27 60.12 C23.67 59.01 21.13 58.98 17.63 58.99 C16.51 58.99 15.39 58.99 14.23 58.98 C8.78 59.13 8.78 59.13 4.19 61.68 C3.8 62.15 3.41 62.63 3 63.12 C2.1 62.83 1.19 62.54 0.25 62.24 C-9.33 59.51 -9.33 59.51 -19.12 59.69 C-22 60.12 -22 60.12 -24.35 59.46 C-26 58.12 -26 58.12 -26.39 56.11 C-26.39 55.27 -26.38 54.42 -26.37 53.55 C-26.67 47.27 -28.62 42.06 -31 36.31 C-34.01 28.65 -32.59 22.15 -29.43 14.65 C-25.96 8.52 -20.79 3.25 -14 1.12 C-9.36 0.28 -4.69 0.18 0 0 Z " fill="#8732F7" transform="translate(518.99609375,184.8828125)"/>
<path d="M0 0 C5.22 -0.12 7.87 2.23 11.48 5.62 C12.97 7.1 12.97 7.1 15 8 C14.62 10.44 14.62 10.44 14 13 C13.34 13.33 12.68 13.66 12 14 C12.96 17.67 14.07 20.3 16.56 23.12 C20.39 27.64 20.4 31.13 20 37 C17.95 43.46 17.95 43.46 14.56 45.38 C10.48 47.96 9.32 51.45 8 56 C7.36 59.95 6.88 63.86 6.49 67.84 C6 71 6 71 4 73 C1.69 73.5 1.69 73.5 -1 73 C-2.18 71.62 -3.34 70.23 -4.43 68.79 C-9.38 63.14 -15.73 59.84 -22.82 57.81 C-27.91 55.92 -32.02 52.47 -35 48 C-36.29 43.72 -37.17 39.39 -38 35 C-38.16 34.22 -38.31 33.44 -38.47 32.64 C-39.36 24.06 -32.75 15.82 -27.98 9.19 C-23.22 3.93 -16.35 3.86 -9.62 3.5 C-8.44 3.47 -7.26 3.44 -6.04 3.41 C-2.71 2.96 -2.09 2.45 0 0 Z " fill="#9E34ED" transform="translate(974,107)"/>
<path d="M0 0 C2.25 -0.03 4.5 -0.05 6.75 -0.06 C8 -0.07 9.26 -0.09 10.55 -0.1 C14 0 14 0 16.14 0.57 C18.08 1.16 18.08 1.16 20.37 0.5 C36.3 -2.53 60.13 10.37 73 19 C77.2 21.98 81.2 25.19 85.16 28.48 C87.15 30.12 89.16 31.73 91.18 33.34 C92.6 34.48 94.02 35.61 95.44 36.75 C96.09 37.27 96.74 37.79 97.41 38.32 C101.31 41.48 104.87 44.81 108.38 48.39 C110.55 50.55 112.9 52.43 115.31 54.31 C120.09 58.15 124.38 62.28 128.66 66.66 C131.34 69.34 134.13 71.83 137 74.29 C139.19 76.17 141.35 78.08 143.5 80 C146.95 83.07 150.42 86.12 153.91 89.15 C156.27 91.24 158.6 93.37 160.94 95.5 C164.63 98.83 168.4 101.94 172.35 104.94 C174.44 106.56 176.49 108.22 178.52 109.9 C188.03 117.77 197.81 125.05 208 132 C208.58 132.4 209.16 132.79 209.75 133.2 C220.14 140.29 230.68 146.53 242 152 C243.06 152.53 244.12 153.07 245.22 153.62 C260.95 161.31 277.7 167.41 294.79 171.25 C297.94 171.99 300.95 172.93 304 174 C306.9 174.95 306.9 174.95 309.82 174.47 C312.41 173.91 314.12 174.22 316.69 174.81 C317.48 174.98 318.26 175.16 319.07 175.33 C321 176 321 176 322 178 C314 178.24 306.4 177.58 298.5 176.31 C297.36 176.13 296.23 175.95 295.05 175.77 C285.16 174.14 275.58 171.94 266 169 C265.25 168.78 264.49 168.55 263.72 168.32 C240.38 161.23 218.1 149.72 198 136 C196.52 135.01 195.05 134.01 193.57 133.02 C189.68 130.39 185.83 127.71 182 125 C181.09 124.36 180.17 123.71 179.23 123.05 C177.44 121.76 175.71 120.39 174 119 C174 118.34 174 117.68 174 117 C173.47 116.94 172.93 116.88 172.38 116.81 C168.96 115.64 166.6 113.36 163.94 111 C162.77 109.99 161.6 108.97 160.43 107.96 C159.85 107.46 159.27 106.95 158.67 106.43 C156.35 104.44 153.96 102.53 151.56 100.62 C145.87 96 140.56 91.01 135.21 86 C132.83 83.76 130.41 81.57 127.94 79.44 C122.16 74.44 116.6 69.19 111 64 C106.67 59.99 102.34 55.99 98 52 C97.11 51.18 96.23 50.37 95.31 49.53 C88.64 43.45 81.7 37.77 74.48 32.35 C73.88 31.9 73.29 31.44 72.67 30.98 C71.49 30.09 70.3 29.2 69.11 28.32 C67.71 27.26 66.35 26.14 65 25 C65 24.34 65 23.68 65 23 C64.42 22.87 63.83 22.75 63.23 22.62 C61.02 22 59.34 21.21 57.36 20.07 C56.68 19.69 56 19.3 55.3 18.91 C54.26 18.3 54.26 18.3 53.19 17.69 C52.5 17.3 51.81 16.91 51.11 16.5 C45.72 13.43 45.72 13.43 43.1 11.87 C37.84 8.76 32.9 7.38 27 6 C26.3 5.83 25.61 5.67 24.89 5.5 C22.55 4.95 20.21 4.41 17.88 3.88 C17.14 3.7 16.4 3.53 15.63 3.36 C10.44 2.2 5.3 1.51 0 1 C0 0.67 0 0.34 0 0 Z " fill="#7F87B2" transform="translate(606,422)"/>
<path d="M0 0 C0.76 0.01 1.51 0.01 2.29 0.02 C7.51 0.1 12.59 0.43 17.75 1.19 C18.84 1.31 19.94 1.44 21.06 1.56 C24.09 2.27 25.45 3.12 27.75 5.19 C28.73 7.28 28.73 7.28 29.38 9.69 C29.62 10.57 29.86 11.45 30.11 12.36 C30.75 15.21 31.23 18.05 31.69 20.94 C32.47 25.65 33.75 28.49 36.75 32.19 C30.11 34.89 23.42 36.58 16.44 38.19 C10.24 39.63 4.06 41.08 -2.06 42.8 C-6.36 43.99 -10.52 44.81 -14.94 45.38 C-16.14 45.53 -17.34 45.69 -18.57 45.86 C-19.46 45.97 -20.34 46.07 -21.25 46.19 C-21.29 45.54 -21.32 44.88 -21.36 44.21 C-21.78 38.45 -21.78 38.45 -23.88 33.12 C-25.85 28.91 -25.31 25.66 -24.25 21.19 C-22.79 17.69 -20.95 14.5 -19 11.25 C-18.52 10.4 -18.04 9.55 -17.55 8.68 C-14.05 2.72 -14.05 2.72 -10.91 0.63 C-7.26 0.02 -3.69 -0.07 0 0 Z " fill="#8832F7" transform="translate(483.25,403.8125)"/>
<path d="M0 0 C0.99 -0.01 1.98 -0.03 3 -0.04 C5.56 0.19 5.56 0.19 7.56 2.19 C8.93 6.35 8.72 10.61 8.72 14.95 C8.73 15.83 8.73 16.71 8.74 17.62 C8.75 20.54 8.76 23.46 8.77 26.38 C8.77 28.41 8.78 30.43 8.78 32.46 C8.79 36.71 8.8 40.96 8.8 45.2 C8.81 50.65 8.83 56.1 8.86 61.55 C8.88 65.74 8.88 69.92 8.89 74.11 C8.89 76.12 8.9 78.13 8.91 80.14 C8.93 82.95 8.93 85.75 8.92 88.56 C8.93 89.39 8.94 90.22 8.95 91.08 C8.91 96.76 8.91 96.76 7.17 98.9 C5.06 100.59 3.75 100.59 1.06 100.56 C-0.1 100.57 -0.1 100.57 -1.28 100.59 C-3.98 100.09 -4.73 99.31 -6.44 97.19 C-6.81 95.32 -6.81 95.32 -6.8 93.19 C-6.81 92.38 -6.82 91.57 -6.82 90.73 C-6.81 89.85 -6.8 88.96 -6.79 88.05 C-6.8 87.12 -6.8 86.18 -6.8 85.22 C-6.8 82.12 -6.78 79.03 -6.77 75.93 C-6.76 73.78 -6.76 71.64 -6.76 69.49 C-6.76 65 -6.74 60.5 -6.72 56 C-6.69 50.22 -6.68 44.44 -6.68 38.66 C-6.67 34.23 -6.66 29.8 -6.65 25.38 C-6.64 23.24 -6.64 21.11 -6.63 18.98 C-6.63 16.01 -6.61 13.04 -6.6 10.07 C-6.6 8.73 -6.6 8.73 -6.6 7.37 C-6.54 0.04 -6.54 0.04 0 0 Z " fill="#8B33F2" transform="translate(819.4375,429.8125)"/>
<path d="M0 0 C1.41 -0.04 1.41 -0.04 2.84 -0.07 C7.13 -0.09 9.76 -0.07 13.5 2.16 C15.27 4.12 16.66 5.89 17.94 8.19 C19.63 11.13 21.37 13.28 23.81 15.62 C27.33 19.57 27.23 23.47 26.95 28.58 C26.33 32.4 25.06 34.48 22.5 37.38 C21.5 38.56 20.5 39.75 19.5 40.94 C18.98 41.52 18.47 42.1 17.94 42.7 C16.32 44.52 16.32 44.52 14.5 47.31 C12.5 49.38 12.5 49.38 9.44 49.88 C6.5 49.38 6.5 49.38 4.62 48 C3.5 46.38 3.5 46.38 3.5 44.38 C2.89 44.59 2.27 44.81 1.64 45.03 C0.83 45.31 0.02 45.59 -0.81 45.88 C-1.61 46.15 -2.41 46.43 -3.24 46.72 C-5.5 47.38 -5.5 47.38 -8.5 47.38 C-8.17 48.37 -7.84 49.35 -7.5 50.38 C-14.32 50.38 -14.32 50.38 -17.52 47.67 C-20.3 44.51 -23.01 41.36 -24.5 37.38 C-24.12 35.12 -24.12 35.12 -23.5 33.38 C-23.11 34.07 -22.73 34.77 -22.33 35.49 C-21.81 36.4 -21.29 37.31 -20.75 38.25 C-20.24 39.15 -19.73 40.06 -19.2 40.99 C-17.44 43.45 -16.29 44.32 -13.5 45.38 C-14.53 42.38 -15.56 40.3 -17.56 37.81 C-19.39 35.51 -20.08 34.22 -20.5 31.38 C-17.09 32.51 -16.97 32.86 -15.44 35.88 C-14.08 38.71 -14.08 38.71 -11.5 40.38 C-9.38 40.5 -7.25 40.55 -5.12 40.56 C-3.98 40.58 -2.84 40.59 -1.66 40.61 C1.39 40.38 3.03 40.14 5.5 38.38 C9.6 30.03 9.35 22.93 6.45 14.22 C5.51 12.03 5.51 12.03 2.5 10.38 C-0.3 10.02 -0.3 10.02 -3.38 10.06 C-4.4 10.05 -5.43 10.03 -6.49 10.01 C-11.87 10.66 -15.43 14 -19.5 17.38 C-18.14 12.08 -14.9 10.14 -10.5 7.38 C-10.83 6.06 -11.16 4.73 -11.5 3.38 C-12.82 3.05 -14.14 2.72 -15.5 2.38 C-10.53 -0.26 -5.48 0.01 0 0 Z " fill="#9533F1" transform="translate(753.5,59.625)"/>
<path d="M0 0 C8.69 -1.54 18.02 3.44 25.12 8.06 C32.69 13.71 38.89 21.12 44.56 28.62 C56.8 44.61 73.2 55.15 93 59 C93 59.33 93 59.66 93 60 C76.9 60.99 63.86 56.71 50 49 C50 48.34 50 47.68 50 47 C49.33 46.82 48.66 46.63 47.96 46.45 C43.7 44.37 40.85 41.24 37.56 37.88 C36.92 37.24 36.28 36.6 35.62 35.94 C31.3 31.58 27.57 26.98 24 22 C17.47 13.13 8.16 7.06 -2 3 C-1.34 2.01 -0.68 1.02 0 0 Z " fill="#7F86B1" transform="translate(327,392)"/>
<path d="M0 0 C2.37 1.68 4.11 3.7 5.94 5.94 C6.42 6.49 6.9 7.04 7.39 7.61 C9.16 9.65 10.79 11.58 12 14 C13.65 14 15.3 14 17 14 C16.84 14.77 16.69 15.54 16.53 16.34 C16.33 17.34 16.14 18.34 15.94 19.38 C15.74 20.37 15.54 21.37 15.34 22.4 C14.76 24.98 14.76 24.98 16 27 C16.07 29.55 16.09 32.07 16.06 34.62 C16.06 35.33 16.05 36.04 16.05 36.77 C16.04 38.51 16.02 40.26 16 42 C15.24 41.81 14.47 41.63 13.69 41.44 C10.91 40.77 10.91 40.77 8 42 C5.66 41.84 5.66 41.84 3.06 41.38 C2.21 41.24 1.35 41.1 0.47 40.96 C-2.92 39.64 -4.1 38.08 -6 35 C-6.69 31.8 -6.69 31.8 -7 28.31 C-7.53 23.72 -8.23 19.91 -10.12 15.69 C-12.14 11.1 -13.01 6.98 -12 2 C-9.05 -2.18 -4.47 -1.35 0 0 Z " fill="#8D33F6" transform="translate(686,46)"/>
<path d="M0 0 C6.48 2 12.67 5.29 16.44 11.06 C16.73 11.7 17.01 12.34 17.31 13 C18.38 15.29 18.38 15.29 20.98 17.03 C24.56 21.44 24.1 25.18 23.94 30.69 C23.94 32.12 23.94 32.12 23.95 33.58 C23.85 40.53 23.85 40.53 22.07 42.83 C19.05 45.11 15.67 44.59 12.03 44.46 C9.44 44.06 9.44 44.06 7 42.19 C5.27 38.72 3.8 35.22 2.44 31.6 C1.55 29.35 0.54 27.31 -0.62 25.19 C-4.11 18.42 -5.97 10.67 -5.56 3.06 C-3.98 0.33 -3.15 0.08 0 0 Z " fill="#8832F7" transform="translate(571.5625,102.9375)"/>
<path d="M0 0 C10.82 -0.78 10.82 -0.78 15.12 2.06 C18.91 7.99 19.76 14.11 19 21 C18.08 25.16 17.23 28.03 13.81 30.71 C10.39 32.28 7.93 32.3 4.19 32.19 C2.45 32.15 2.45 32.15 0.67 32.11 C-0.21 32.07 -1.09 32.04 -2 32 C-2.3 31.38 -2.6 30.76 -2.91 30.12 C-3.94 27.95 -3.94 27.95 -5.5 26.06 C-8.54 21.88 -9.61 18.15 -9 13 C-7.19 8 -5.79 5.37 -1 3 C-0.67 2.01 -0.34 1.02 0 0 Z " fill="#8B33F2" transform="translate(744,69)"/>
<path d="M0 0 C21.49 1.67 41.23 12.41 59.31 23.31 C74.1 32.19 88.75 37.79 105.36 42.43 C107.31 43.05 107.31 43.05 108.31 44.05 C110.49 44.45 112.68 44.8 114.88 45.12 C116.07 45.29 117.27 45.47 118.5 45.65 C119.43 45.79 120.36 45.92 121.31 46.05 C121.31 46.38 121.31 46.71 121.31 47.05 C91.91 48.46 63.93 36.76 39.3 21.61 C23.21 11.73 6.88 5.46 -11.69 2.05 C-11.69 1.72 -11.69 1.39 -11.69 1.05 C-11.05 1.07 -10.41 1.08 -9.75 1.09 C-8.93 1.1 -8.1 1.11 -7.25 1.12 C-6.01 1.13 -6.01 1.13 -4.75 1.15 C-2.38 1.04 -2.25 0.07 0 0 Z " fill="#858CB7" transform="translate(100.6875,374.9453125)"/>
<path d="M0 0 C5.65 0.28 8.91 0.79 13 5 C13.33 5.99 13.66 6.98 14 8 C15.46 9.49 15.46 9.49 17.25 10.88 C17.88 11.4 18.5 11.93 19.14 12.47 C20.73 13.78 22.33 15.08 23.94 16.38 C26.27 19.35 26.56 21.19 26.29 24.94 C25.14 33.12 25.14 33.12 21.81 35.69 C18.52 37.22 16.3 37.31 12.69 37.19 C11.08 37.15 11.08 37.15 9.45 37.11 C8.64 37.07 7.83 37.04 7 37 C5.19 33.83 4.6 31.1 4.12 27.5 C3.45 23.03 2.41 19.01 0.88 14.75 C-0.85 9.87 -1.49 6.15 -1 1 C-0.67 0.67 -0.34 0.34 0 0 Z " fill="#9F35ED" transform="translate(957,59)"/>
<path d="M0 0 C2.24 -0.29 2.24 -0.29 4 -1 C4.27 -0.22 4.54 0.57 4.81 1.38 C5.85 4.28 5.85 4.28 9 6 C9 6.99 9 7.98 9 9 C8.01 9.5 8.01 9.5 7 10 C6.92 10.78 6.84 11.57 6.75 12.38 C6 15 6 15 3.44 16.5 C2.3 17 1.17 17.49 0 18 C-1.26 18.87 -2.51 19.74 -3.75 20.62 C-8.21 23.44 -12.72 24.65 -18 24 C-21.43 20.99 -22.8 18.06 -23.24 13.51 C-23.4 7.5 -23.28 3.64 -19 -1 C-13.09 -4.77 -6.05 -2.49 0 0 Z " fill="#9533F1" transform="translate(812,190)"/>
<path d="M0 0 C4.81 3.11 9.88 6.49 12 12 C12.73 16.28 12.25 17.64 9.75 21.25 C5.82 25.18 3.23 26.29 -2.31 26.31 C-7.35 26.2 -10.68 25.61 -15 23 C-17.97 19.65 -18.55 16.52 -18.34 12.05 C-17.6 7.59 -15.82 4.35 -12.16 1.64 C-7.88 -0.76 -4.75 -1.84 0 0 Z " fill="#8432FA" transform="translate(414,69)"/>
<path d="M0 0 C3.16 4.82 3.55 9.04 3.56 14.62 C3.6 15.38 3.64 16.13 3.67 16.9 C3.69 19.1 3.69 19.1 3 23 C0.09 25.34 0.09 25.34 -3 27 C-3.66 27.99 -4.32 28.98 -5 30 C-6.95 30.51 -6.95 30.51 -9.12 30.69 C-10.4 30.79 -11.68 30.89 -13 31 C-19.67 20.64 -19.67 20.64 -20.75 15.31 C-19.47 9.65 -17.1 4.77 -12.62 1 C-8.23 -0.67 -4.51 -1.5 0 0 Z " fill="#8432FA" transform="translate(488,416)"/>
<path d="M0 0 C3.61 1.38 4.69 2.53 6.81 5.75 C8.22 9.6 8.56 11.93 8 16 C6.4 19.22 4.56 22.44 2 25 C-2.23 25.64 -6.26 25.82 -10.18 23.98 C-13.72 21.31 -15.4 18.97 -16.06 14.56 C-16.2 10.39 -15.63 6.88 -14 3 C-9.76 -0.99 -5.53 -0.65 0 0 Z " fill="#8732F8" transform="translate(388,261)"/>
<path d="M0 0 C6 -0.77 9.11 0.89 14.08 4.2 C16.91 6.85 17.8 9.48 18.3 13.28 C18.33 17.99 18.18 21.25 15 25 C11.78 27.33 8.9 27.47 5 27 C0.69 24.72 -2.17 22.58 -4 18 C-5.08 11.16 -3.18 6 0 0 Z " fill="#9633F1" transform="translate(953,125)"/>
<path d="M0 0 C6.78 0.05 11.2 1.66 16.02 6.33 C21.87 12.39 24.46 15.71 24.33 24.36 C24 27 24 27 22.12 29.69 C16.45 32.07 10.65 31.92 4.94 29.62 C2 28 2 28 1 26 C1.78 25.75 2.57 25.5 3.38 25.25 C6.4 23.81 6.81 23.03 8 20 C8.66 19.01 9.32 18.02 10 17 C10.57 13.85 10.55 11.88 8.83 9.12 C5.97 5.59 3.53 3.2 -1 2 C-0.67 1.34 -0.34 0.68 0 0 Z " fill="#8B33F2" transform="translate(711,405)"/>
<path d="M0 0 C4.87 -0.35 7.88 0.35 12 3 C14.56 6.39 15.78 9.96 17 14 C16.34 14 15.68 14 15 14 C15.33 14.99 15.66 15.98 16 17 C17.96 17.49 19.93 17.96 21.91 18.34 C25.96 19.21 29.91 20.34 33.88 21.5 C34.62 21.71 35.37 21.93 36.15 22.15 C39.49 23.13 42.08 24.06 45 26 C45 26.66 45 27.32 45 28 C40.3 27.38 35.74 26.52 31.12 25.44 C26.35 24.39 22.11 23.82 17.24 24.03 C12.75 23.97 8.39 22.89 4 22 C3.67 16.39 3.34 10.78 3 5 C1.68 4.67 0.36 4.34 -1 4 C-0.67 2.68 -0.34 1.36 0 0 Z " fill="#8B33F1" transform="translate(605,399)"/>
<path d="M0 0 C1.07 1.71 2.13 3.44 3.05 5.24 C3.99 7.15 3.99 7.15 5.81 9 C7 11 7 11 6.94 14.38 C5.44 20.16 2.32 23.99 -2 28 C-7.88 26.12 -7.88 26.12 -9 25 C-9.2 21.45 -9.35 17.9 -9.43 14.35 C-9.61 10.02 -9.77 7.22 -13 4 C-12.44 2.06 -12.44 2.06 -11 0 C-3.34 -1.84 -3.34 -1.84 0 0 Z " fill="#8433FB" transform="translate(520,199)"/>
<path d="M0 0 C25.41 0 50.82 0 77 0 C76.67 0.99 76.34 1.98 76 3 C65.61 3.64 55.26 4.09 44.85 4.03 C43.93 4.02 43.01 4.02 42.05 4.01 C38.28 3.98 34.5 3.95 30.73 3.9 C27.91 3.87 25.1 3.86 22.29 3.84 C21.44 3.83 20.6 3.81 19.72 3.8 C15.07 3.78 11.38 4.21 7 6 C6.86 7.09 6.71 8.19 6.56 9.31 C6 13 6 13 5 16 C2.52 15.01 2.52 15.01 0 14 C0.08 13.41 0.17 12.82 0.25 12.21 C0.36 11.42 0.46 10.63 0.56 9.81 C0.67 9.04 0.77 8.26 0.88 7.46 C1.12 4.55 1.12 4.55 0 0 Z " fill="#8E34F7" transform="translate(611,0)"/>
<path d="M0 0 C1.81 0.12 1.81 0.12 4 1 C6.08 4.51 7.5 8.21 9 12 C10.02 14.28 11.06 16.55 12.1 18.82 C12.4 19.54 12.69 20.26 13 21 C13.27 21.65 13.54 22.31 13.82 22.98 C14.09 26.06 12.62 27.37 10.75 29.75 C8.34 32.97 6.54 35.73 5.31 39.56 C4.88 40.7 4.45 41.83 4 43 C1.92 43.71 1.92 43.71 0 44 C0.33 41.69 0.66 39.38 1 37 C0.34 36.67 -0.32 36.34 -1 36 C-0.84 35.01 -0.67 34.02 -0.5 33 C0.06 28.59 0.11 24.19 0.12 19.75 C0.13 19.05 0.13 18.36 0.14 17.64 C0.13 14.28 0.04 11.21 -1 8 C-0.01 8 0.98 8 2 8 C2.66 8.66 3.32 9.32 4 10 C3.52 5.78 2.83 3.2 0 0 Z " fill="#B339E3" transform="translate(1207,378)"/>
<path d="M0 0 C2.45 2.72 2.68 3.43 2.88 6.94 C2.67 10.48 2.26 11.48 0.12 14.5 C-3.12 16.75 -4.8 17.58 -8.75 17.5 C-12.45 15.51 -14.41 14 -16.75 10.5 C-17.42 3.5 -17.42 3.5 -15.12 0.06 C-9.8 -3.44 -5.32 -2.9 0 0 Z " fill="#8D33F5" transform="translate(569.75,239.5)"/>
<path d="M0 0 C2.06 1.81 3.38 3.75 5 6 C5.99 6 6.98 6 8 6 C7.62 8.78 7.33 10.59 5.56 12.81 C4 14 4 14 2 14 C1.01 14.5 1.01 14.5 0 15 C-6.47 15.35 -6.47 15.35 -10 13 C-10.99 13 -11.98 13 -13 13 C-14.35 5.78 -14.35 5.78 -12.69 2.06 C-9.25 -2.14 -4.88 -1.42 0 0 Z " fill="#8732F8" transform="translate(412,74)"/>
<path d="M0 0 C0.66 0 1.32 0 2 0 C2 0.99 2 1.98 2 3 C2.99 3.33 3.98 3.66 5 4 C5.07 6.87 5.1 9.52 4.5 12.34 C3.96 15.23 3.9 17.88 3.94 20.81 C3.95 21.79 3.96 22.76 3.96 23.77 C3.98 24.51 3.99 25.24 4 26 C-1.04 25.19 -3.25 24.17 -6.31 20 C-6.78 19.3 -7.25 18.6 -7.74 17.88 C-9 15.88 -9 15.88 -11 14 C-8.69 13.01 -6.38 12.02 -4 11 C-4.25 10.46 -4.5 9.93 -4.75 9.38 C-5.14 5.7 -3.15 3.85 -1 1 C-0.67 0.67 -0.34 0.34 0 0 Z " fill="#8B33F2" transform="translate(698,276)"/>
<path d="M0 0 C1.08 1.24 1.08 1.24 2.19 2.5 C4.71 5.26 4.71 5.26 7.68 5.16 C8.44 5.1 9.21 5.05 10 5 C9.84 5.77 9.69 6.54 9.53 7.34 C9.33 8.34 9.14 9.34 8.94 10.38 C8.74 11.37 8.54 12.37 8.34 13.4 C7.76 15.98 7.76 15.98 9 18 C9.07 20.55 9.09 23.07 9.06 25.62 C9.06 26.33 9.05 27.04 9.05 27.77 C9.04 29.51 9.02 31.26 9 33 C7.86 32.72 7.86 32.72 6.69 32.44 C3.91 31.77 3.91 31.77 1 33 C-1.04 32.88 -1.04 32.88 -3.19 32.56 C-5.07 32.28 -5.07 32.28 -7 32 C-6.4 31.75 -5.8 31.5 -5.19 31.25 C-0.26 28.44 1.05 23.71 2.5 18.52 C3.19 15.06 2.81 12.42 2 9 C1.65 7.35 1.29 5.71 0.94 4.06 C0.63 2.71 0.32 1.35 0 0 Z " fill="#8B33F2" transform="translate(693,55)"/>
<path d="M0 0 C3.61 1.38 4.69 2.53 6.81 5.75 C8.22 9.6 8.56 11.93 8 16 C6.4 19.22 4.56 22.44 2 25 C-2.23 25.64 -6.26 25.82 -10.18 23.98 C-13.72 21.31 -15.4 18.97 -16.06 14.56 C-16.2 10.39 -15.63 6.88 -14 3 C-9.76 -0.99 -5.53 -0.65 0 0 Z M-9.88 5.06 C-12.07 8.65 -13 11.74 -13 16 C-12.32 18.95 -12.32 18.95 -10 21 C-7 22.37 -4.3 23.06 -1 23 C2.76 20.36 4.93 17.47 6 13 C5.93 8.81 5.65 6.75 2.88 3.56 C-2.13 0.84 -6.22 0.37 -9.88 5.06 Z " fill="#8333FB" transform="translate(388,261)"/>
<path d="M0 0 C3.72 1.35 5.02 2.61 6.94 6.06 C6.94 9.66 6.34 11.48 4.31 14.44 C0.94 16.75 -1.06 16.78 -5.06 16.06 C-7.99 12.99 -9.04 11.19 -9.12 6.94 C-7.4 2.26 -5.06 0.1 0 0 Z " fill="#8433FB" transform="translate(73.0625,147.9375)"/>
<path d="M0 0 C4.52 1.84 4.52 1.84 6.06 4.25 C6.45 7.34 6.6 9.34 5 12.06 C1.98 13.91 -0.42 14.19 -3.94 14.25 C-6.88 12.69 -6.88 12.69 -8.94 10.25 C-9.5 7.25 -9.5 7.25 -8.94 4.25 C-6.15 0.82 -4.46 -1.14 0 0 Z " fill="#9633F1" transform="translate(709.9375,411.75)"/>
<path d="M0 0 C0.95 0.01 1.9 0.02 2.88 0.03 C3.58 0.04 4.28 0.05 5 0.06 C5 0.72 5 1.38 5 2.06 C6.32 2.39 7.64 2.72 9 3.06 C7.81 3.14 6.62 3.21 5.39 3.29 C-9.24 4.37 -23.26 7.23 -37.54 10.54 C-40 11.06 -40 11.06 -42 11.06 C-41.08 8.54 -40.49 7.31 -38.06 6.06 C-33.68 4.63 -29.22 3.83 -24.69 3 C-23.32 2.74 -23.32 2.74 -21.92 2.47 C-14.62 1.11 -7.45 -0.09 0 0 Z " fill="#8A32F6" transform="translate(584,419.9375)"/>
<path d="M0 0 C1.88 1.12 1.88 1.12 3 3 C3.69 6.69 3.69 6.69 4 10 C1.47 12.43 0.03 13 -3.5 13.5 C-7 13 -7 13 -9.44 10.88 C-11.26 7.53 -11.65 5.75 -11 2 C-7.82 -1.94 -4.59 -1.17 0 0 Z " fill="#AA36E6" transform="translate(1093,123)"/>
<path d="M0 0 C0.33 0.95 0.66 1.9 1 2.88 C3.17 6.27 3.52 6.49 7.19 7.38 C8.45 7.58 9.7 7.79 11 8 C11 8.99 11 9.98 11 11 C0.7 13.19 -7.65 9.15 -17 5 C-16.1 4.82 -16.1 4.82 -15.18 4.63 C-12.75 4.06 -12.75 4.06 -10.19 1.94 C-6.47 -0.32 -4.27 -0.34 0 0 Z " fill="#8532F9" transform="translate(416,440)"/>
<path d="M0 0 C2.12 0.38 2.12 0.38 4 1 C4.33 2.98 4.66 4.96 5 7 C4.01 7.33 3.02 7.66 2 8 C1.57 9.33 1.57 9.33 1.12 10.69 C-0.26 14.75 -2.14 16.84 -5 20 C-6.65 19.67 -8.3 19.34 -10 19 C-10.69 17.31 -10.69 17.31 -11 15 C-9.75 12.31 -9.75 12.31 -8 10 C-7.01 9.67 -6.02 9.34 -5 9 C-3.95 6.69 -2.95 4.35 -2 2 C-1.34 1.34 -0.68 0.68 0 0 Z " fill="#9E34ED" transform="translate(904,510)"/>
<path d="M0 0 C0.99 0.33 1.98 0.66 3 1 C2.34 2.65 1.68 4.3 1 6 C1.33 6.33 1.66 6.66 2 7 C2.07 8.6 2.08 10.21 2.06 11.81 C2.05 12.69 2.04 13.56 2.04 14.46 C2.02 15.3 2.01 16.14 2 17 C2 18.32 2 19.64 2 21 C2 21.99 2 22.98 2 24 C-2.84 21.93 -5.48 18.54 -8 14 C-8.38 10.31 -7.59 8.76 -5.35 5.85 C-3.62 3.84 -1.85 1.9 0 0 Z " fill="#8B33F2" transform="translate(821,388)"/>
<path d="M0 0 C3.84 0.63 5.28 2.48 7.69 5.44 C7.69 6.43 7.69 7.42 7.69 8.44 C6.97 7.59 6.24 6.75 5.5 5.88 C2.95 3.09 2.95 3.09 -0.12 3.62 C-0.85 3.89 -1.57 4.16 -2.31 4.44 C-2.01 11.23 0.73 16.94 4.69 22.44 C7.19 24.15 7.19 24.15 9.69 25.44 C10.35 26.1 11.01 26.76 11.69 27.44 C10.44 30.38 10.44 30.38 8.69 33.44 C6.5 34.31 6.5 34.31 4.69 34.44 C2.66 31.39 2.14 29.52 1.38 26 C0.05 20.36 -1.95 15.35 -4.42 10.13 C-5.44 7.05 -5.34 5.49 -4.31 2.44 C-2.31 0.44 -2.31 0.44 0 0 Z " fill="#8B33F2" transform="translate(681.3125,47.5625)"/>
<path d="M0 0 C0.66 0 1.32 0 2 0 C2.35 6.23 1.93 12.37 -1 18 C-5.23 21.62 -9.4 21.42 -14.69 21.31 C-15.46 21.32 -16.23 21.32 -17.03 21.32 C-22.73 21.27 -22.73 21.27 -25 19 C-23.68 18.94 -23.68 18.94 -22.33 18.89 C-20.59 18.79 -20.59 18.79 -18.81 18.69 C-17.66 18.63 -16.52 18.57 -15.33 18.51 C-11.72 17.96 -9.85 17.25 -7 15 C-5.17 12.46 -5.17 12.46 -3.75 9.56 C-3.25 8.62 -2.75 7.67 -2.23 6.69 C-1.2 4.43 -0.48 2.43 0 0 Z " fill="#8B33F2" transform="translate(576,0)"/>
<path d="M0 0 C3.84 1.32 6.35 2.93 9.31 5.69 C10.08 6.4 10.86 7.11 11.65 7.84 C12.43 8.55 13.2 9.26 14 10 C15.45 11.28 16.91 12.55 18.38 13.81 C25.27 19.79 25.27 19.79 26 24 C22.28 22.39 19.51 20.05 16.44 17.44 C15.38 16.54 14.32 15.65 13.26 14.75 C12.72 14.3 12.19 13.84 11.63 13.38 C9.03 11.18 6.39 9.03 3.75 6.88 C2.84 6.13 1.92 5.38 0.98 4.62 C0.33 4.08 -0.33 3.55 -1 3 C-0.67 2.01 -0.34 1.02 0 0 Z " fill="#9233F1" transform="translate(764,512)"/>
<path d="M0 0 C11.34 4.85 18.6 15.19 24 26 C19.94 24.38 17.19 21.5 14.19 18.44 C13.4 17.64 13.4 17.64 12.59 16.82 C1.99 5.97 1.99 5.97 0 0 Z " fill="#8432FA" transform="translate(363,410)"/>
<path d="M0 0 C3.08 4.01 5.88 8.2 8.68 12.4 C11.94 17.21 11.94 17.21 17.16 19.45 C22.98 20.01 28.21 19.84 34 19 C32.15 21.41 31.13 21.97 28.11 22.62 C16.15 23.53 16.15 23.53 11 20 C0.23 8.38 0.23 8.38 -0.19 2.19 C-0.13 1.47 -0.06 0.74 0 0 Z " fill="#8B33F2" transform="translate(800,406)"/>
<path d="M0 0 C0.99 0.33 1.98 0.66 3 1 C2.67 1.64 2.34 2.28 2 2.94 C0.66 7.05 0.38 10.72 1 15 C2.64 18.3 2.64 18.3 5 21 C6.11 22.42 6.11 22.42 7.25 23.88 C7.83 24.58 8.4 25.28 9 26 C6.52 25.01 6.52 25.01 4 24 C3.01 24.99 2.02 25.98 1 27 C0.89 26.43 0.78 25.86 0.67 25.28 C-0.13 21.4 -0.95 17.88 -2.69 14.31 C-4.19 10.52 -4.17 8.86 -3 5 C-1.44 2.12 -1.44 2.12 0 0 Z " fill="#8433FB" transform="translate(464,421)"/>
<path d="M0 0 C3.06 1.25 3.06 1.25 5 3 C5.81 5.19 5.81 5.19 6 7 C3.69 5.68 1.38 4.36 -1 3 C-1 3.33 -1 3.66 -1 4 C-2.05 4 -3.1 4 -4.19 4 C-8.43 5.11 -8.77 5.53 -10.94 9.06 C-11.65 10.36 -12.34 11.67 -13 13 C-13.33 12.34 -13.66 11.68 -14 11 C-14.66 10.67 -15.32 10.34 -16 10 C-14.53 3.51 -14.53 3.51 -12.23 1.29 C-8.34 -0.96 -4.36 -0.52 0 0 Z " fill="#8432FA" transform="translate(388,261)"/>
<path d="M0 0 C3.48 1.61 6.55 3.62 9.69 5.81 C10.66 6.48 11.63 7.15 12.64 7.83 C15.28 10.26 15.74 11.49 16 15 C11.2 13.38 7.33 10.71 3.19 7.88 C2.49 7.41 1.8 6.94 1.09 6.46 C-0.61 5.31 -2.31 4.16 -4 3 C-2.68 2.01 -1.36 1.02 0 0 Z " fill="#9633F0" transform="translate(815,550)"/>
<path d="M0 0 C-0.88 3.88 -0.88 3.88 -2 5 C-4.12 5.15 -6.25 5.22 -8.38 5.25 C-9.54 5.28 -10.7 5.3 -11.9 5.33 C-15 5 -15 5 -16.91 3.48 C-17.45 2.75 -17.45 2.75 -18 2 C-16.31 1.53 -14.63 1.06 -12.94 0.59 C-10.78 -0.04 -10.78 -0.04 -7.88 -1.25 C-4.46 -2.14 -3.06 -1.62 0 0 Z " fill="#8B33F2" transform="translate(566,12)"/>
<path d="M0 0 C2.31 0 4.62 0 7 0 C7 1.32 7 2.64 7 4 C7.66 4.33 8.32 4.66 9 5 C8.5 5.35 8.01 5.7 7.5 6.06 C5.27 8.94 5.8 11.47 6 15 C5.01 15.33 4.02 15.66 3 16 C2.01 15.34 1.02 14.68 0 14 C0.08 13.41 0.17 12.82 0.25 12.21 C0.81 7.9 1.23 4.24 0 0 Z " fill="#8B33F2" transform="translate(611,0)"/>
<path d="M0 0 C1.32 0.33 2.64 0.66 4 1 C4.38 3.61 4.37 5.38 2.99 7.67 C1.69 9.31 1.69 9.31 -1 12 C-1.99 12 -2.98 12 -4 12 C-5.69 13.44 -5.69 13.44 -7 15 C-7.66 14.34 -8.32 13.68 -9 13 C-8.06 11.58 -7.13 10.17 -6.19 8.75 C-5.67 7.96 -5.14 7.17 -4.61 6.36 C-3.13 4.19 -1.59 2.09 0 0 Z " fill="#AA36E6" transform="translate(1113,356)"/>
<path d="M0 0 C2.61 3.91 2.12 6.09 1.52 10.62 C1 13 1 13 -0.5 15.56 C-4.1 17.63 -7.85 18.24 -12 18 C-12.66 17.34 -13.32 16.68 -14 16 C-10.55 13.7 -8.06 13.53 -4 13 C-2.11 11.11 -2.58 7.8 -2.38 5.23 C-2 3 -2 3 0 0 Z " fill="#8E34F7" transform="translate(781,94)"/>
<path d="M0 0 C18.26 2.01 18.26 2.01 22.12 6.69 C22.74 7.78 23.36 8.87 24 10 C23.67 10.66 23.34 11.32 23 12 C18 9 18 9 15.75 7.38 C12.47 5.73 9.71 5.47 6.09 5.21 C4 5 4 5 1 4 C0.31 1.94 0.31 1.94 0 0 Z " fill="#8E34F7" transform="translate(649,423)"/>
<path d="M0 0 C4.9 0.48 7.58 1.8 11.44 4.81 C15.51 7.91 19.49 10.6 24 13 C23.34 13.66 22.68 14.32 22 15 C18.14 14.68 15.81 13.44 12.79 11.09 C11.67 10.23 11.67 10.23 10.52 9.34 C9.75 8.73 8.98 8.13 8.19 7.5 C7.4 6.89 6.61 6.29 5.8 5.66 C1.61 2.4 1.61 2.4 0 1 C0 0.67 0 0.34 0 0 Z " fill="#8B33F1" transform="translate(791,537)"/>
<path d="M0 0 C0.99 0.33 1.98 0.66 3 1 C4.32 1 5.64 1 7 1 C8 2 8 2 8.1 3.85 C8.05 6.92 8.05 6.92 8 10 C5.11 10.83 3.11 11 0 11 C0 7.37 0 3.74 0 0 Z " fill="#8B33F2" transform="translate(854,394)"/>
<path d="M0 0 C3.56 0.19 3.56 0.19 5.56 2.19 C5.23 5.48 4.94 6.81 2.56 9.19 C0.06 9.44 0.06 9.44 -2.44 9.19 C-4.44 7.19 -4.44 7.19 -4.62 4.12 C-4.36 -0.09 -4.31 0.23 0 0 Z " fill="#8832F8" transform="translate(71.4375,151.8125)"/>
<path d="M0 0 C0 0.66 0 1.32 0 2 C-4.78 1.35 -9.52 0.58 -14.25 -0.38 C-15.45 -0.61 -16.65 -0.84 -17.89 -1.09 C-20.9 -1.97 -22.12 -2.56 -24 -5 C-16.23 -7.06 -6.61 -4.41 0 0 Z " fill="#8A32F3" transform="translate(650,425)"/>
<path d="M0 0 C0.66 0 1.32 0 2 0 C4.14 3.21 4.3 4.22 4.31 7.94 C4.34 9.22 4.34 9.22 4.36 10.53 C3.93 13.49 3.05 14.85 1 17 C-1.5 17.5 -1.5 17.5 -4 17 C-6.42 14.58 -7.4 12.34 -8 9 C-7.44 9.35 -6.89 9.7 -6.31 10.06 C-3.46 11.22 -1.91 10.81 1 10 C1.08 6.48 1.04 3.38 0 0 Z " fill="#8B33F2" transform="translate(583,118)"/>
<path d="M0 0 C0.33 0 0.66 0 1 0 C1.04 0.72 1.07 1.45 1.11 2.2 C1.62 10.03 1.62 10.03 5 17 C7.37 18.81 7.37 18.81 10 20 C11.33 20.67 12.67 21.33 14 22 C4.9 21.81 4.9 21.81 1.44 18.69 C-0.81 14.49 -1.14 11.06 -1.12 6.31 C-1.13 5.34 -1.13 4.37 -1.13 3.36 C-1 1 -1 1 0 0 Z " fill="#8E34F7" transform="translate(788,195)"/>
<path d="M0 0 C0.75 1.69 0.75 1.69 1 4 C-1.47 7.98 -3.61 9.57 -8 11 C-13.05 11.63 -18.19 11.99 -22.62 9.19 C-25 7 -25 7 -26 4 C-22 6 -22 6 -20.16 7.05 C-15.17 9.24 -9.53 8.52 -4.5 6.81 C-1.66 4.76 -0.9 3.34 0 0 Z " fill="#8B33F2" transform="translate(564,0)"/>
<path d="M0 0 C3.8 0.22 4.97 0.97 7.75 3.69 C10.05 6.72 10.92 9.13 11 13 C10.01 17.52 8.49 19.98 5 23 C4.01 22.67 3.02 22.34 2 22 C2.66 22 3.32 22 4 22 C4.69 20.68 5.35 19.34 6 18 C6.39 17.22 6.78 16.43 7.19 15.62 C8.24 12.24 8.06 10.38 7 7 C4.65 4.23 4.65 4.23 2 2 C1.34 1.34 0.68 0.68 0 0 Z " fill="#8B33F2" transform="translate(566,235)"/>
<path d="M0 0 C1.19 1.66 1.19 1.66 2 4 C0.84 6.66 0.84 6.66 -1.06 9.5 C-1.67 10.44 -2.28 11.38 -2.91 12.34 C-5.06 15.08 -7.12 17.05 -10 19 C-10.99 19 -11.98 19 -13 19 C-13 18.34 -13 17.68 -13 17 C-12.13 16.5 -11.27 16.01 -10.38 15.5 C-5.05 12.17 -1.94 5.82 0 0 Z " fill="#8B33F2" transform="translate(537,219)"/>
<path d="M0 0 C1.49 0.03 1.49 0.03 3.01 0.05 C3.77 0.08 4.53 0.1 5.31 0.12 C4.98 1.12 4.65 2.11 4.31 3.12 C1.37 4.07 1.37 4.07 -2.25 4.81 C-4.05 5.19 -4.05 5.19 -5.88 5.57 C-7.27 5.85 -7.27 5.85 -8.69 6.12 C-8.69 4.81 -8.69 3.49 -8.69 2.12 C-5.27 -0.16 -4.01 -0.09 0 0 Z " fill="#8A32F6" transform="translate(535.6875,428.875)"/>
<path d="M0 0 C2.31 0.5 2.31 0.5 5 2 C6.69 5.12 8 8.43 8 12 C3.69 10.4 1.58 7.68 -1 4 C-0.81 1.62 -0.81 1.62 0 0 Z " fill="#8433FB" transform="translate(309,122)"/>
<path d="M0 0 C3.62 1.5 3.62 1.5 6 3 C6 3.66 6 4.32 6 5 C0.06 4.34 -5.88 3.68 -12 3 C-12 2.34 -12 1.68 -12 1 C-8.32 -0.84 -4.03 -0.37 0 0 Z " fill="#B43AE3" transform="translate(1201,378)"/>
<path d="M0 0 C4.71 0.71 4.71 0.71 6 2 C6.04 3.67 6.04 5.33 6 7 C4.35 7.66 2.7 8.32 1 9 C-1 7 -1 7 -1.19 3.94 C-1 1 -1 1 0 0 Z " fill="#9F35ED" transform="translate(798,196)"/>
<path d="M0 0 C2.93 0.44 2.93 0.44 5.86 0.88 C7.99 1.11 7.99 1.11 9.97 0.48 C12.48 -0.11 14.18 0.24 16.69 0.81 C17.48 0.98 18.26 1.16 19.07 1.33 C21 2 21 2 22 4 C14.41 4.26 7.43 3.61 0 2 C0 1.34 0 0.68 0 0 Z " fill="#858CB7" transform="translate(906,596)"/>
<path d="M0 0 C1.21 2.33 2.17 4.5 3 7 C1.94 9.19 1.94 9.19 0 11 C-3.19 11.25 -3.19 11.25 -6 11 C-4.74 6.49 -3.1 3.51 0 0 Z " fill="#8B33F2" transform="translate(849,413)"/>
<path d="M0 0 C0.99 0.6 1.98 1.2 3 1.81 C6.86 4.03 10.8 5.53 15 7 C14.01 7.5 14.01 7.5 13 8 C13 8.66 13 9.32 13 10 C8.09 9.21 3.48 6.48 0 3 C0 2.01 0 1.02 0 0 Z " fill="#8E33F1" transform="translate(830,561)"/>
<path d="M0 0 C2.19 0.31 2.19 0.31 4 1 C2.7 1.9 2.7 1.9 1.38 2.81 C-2.53 6.01 -4.41 10.11 -6.61 14.57 C-8 17 -8 17 -11 19 C-9.24 12.32 -5.46 4.46 0 0 Z " fill="#8B33F2" transform="translate(812,374)"/>
<path d="M0 0 C2.56 0.25 2.56 0.25 5 1 C5.33 1.66 5.66 2.32 6 3 C4.56 5.62 4.56 5.62 3 8 C1.68 7.67 0.36 7.34 -1 7 C-1.62 4.62 -1.62 4.62 -2 2 C-1.34 1.34 -0.68 0.68 0 0 Z " fill="#9633F1" transform="translate(706,415)"/>
<path d="M0 0 C0 0.33 0 0.66 0 1 C-0.58 1.05 -1.16 1.1 -1.76 1.16 C-5.39 1.68 -8.1 2.12 -10.79 4.74 C-12.29 6.78 -13.65 8.86 -15 11 C-16.32 12.67 -17.65 14.34 -19 16 C-18.14 10.35 -15.7 6.31 -12 2 C-8.15 -0.78 -4.57 -1.52 0 0 Z " fill="#8433FB" transform="translate(511,189)"/>
<path d="M0 0 C2.62 1.06 2.62 1.06 5 3 C5.56 6 5.56 6 5 9 C3.31 11 3.31 11 1 12 C-1.62 11.5 -1.62 11.5 -4 10 C-5.31 7.38 -5.31 7.38 -6 5 C-2.25 1.12 -2.25 1.12 0 0 Z M-2 2 C-2.66 2.66 -3.32 3.32 -4 4 C-3.68 6.6 -3.68 6.6 -3 9 C-1.02 9.5 -1.02 9.5 1 10 C1.99 8.35 2.98 6.7 4 5 C3.34 4.01 2.68 3.02 2 2 C0.68 2 -0.64 2 -2 2 Z " fill="#8E34F7" transform="translate(708,413)"/>
<path d="M0 0 C2.62 0.38 2.62 0.38 5 1 C5.62 2.88 5.62 2.88 6 5 C5.34 5.66 4.68 6.32 4 7 C1.38 6.62 1.38 6.62 -1 6 C-1.62 4.12 -1.62 4.12 -2 2 C-1.34 1.34 -0.68 0.68 0 0 Z " fill="#A935E6" transform="translate(991,269)"/>
<path d="M0 0 C2.95 0.32 3.96 0.96 6.06 3.12 C9.37 8.03 11.22 13.39 13 19 C12.34 19.66 11.68 20.32 11 21 C10.63 19.91 10.26 18.81 9.88 17.69 C7.58 11.55 4.67 4.67 0 0 Z " fill="#8433FB" transform="translate(490,413)"/>
<path d="M0 0 C2.31 0 4.62 0 7 0 C6.19 3.44 6.19 3.44 5 7 C4.01 7.33 3.02 7.66 2 8 C0.24 4.91 0 3.77 0 0 Z " fill="#8B33F2" transform="translate(567,0)"/>
<path d="M0 0 C2.27 0.11 4.54 0.24 6.81 0.38 C8.08 0.44 9.34 0.51 10.64 0.59 C14 1 14 1 17 3 C11.39 3 5.78 3 0 3 C0 2.01 0 1.02 0 0 Z " fill="#8E34F7" transform="translate(746,109)"/>
<path d="M0 0 C9.67 -0.86 9.67 -0.86 13.5 2.19 C15.83 4.81 17.04 6.66 18 10 C15 9 15 9 12.94 6.06 C9.99 2.27 6.59 1.91 2.01 1.23 C1.02 1.11 1.02 1.11 0 1 C0 0.67 0 0.34 0 0 Z " fill="#8433FB" transform="translate(486,407)"/>
<path d="M0 0 C0.99 0.66 1.98 1.32 3 2 C2.47 2.23 1.94 2.46 1.39 2.7 C-3.23 4.83 -6.06 6.7 -9 11 C-9.66 11.66 -10.32 12.32 -11 13 C-10.8 8.73 -10.3 7.3 -7.19 4.25 C-4.8 2.57 -2.67 1.13 0 0 Z " fill="#8433FB" transform="translate(510,194)"/>
<path d="M0 0 C0.66 0 1.32 0 2 0 C0.85 3.44 0.4 3.67 -2.69 5.25 C-6.47 7.05 -8.91 7.23 -13 6 C-9.69 4.21 -6.24 2.95 -2.71 1.68 C-1 1.13 -1 1.13 0 0 Z " fill="#8B33F2" transform="translate(809,209)"/>
<path d="M0 0 C4.12 1.45 7.4 3.55 11 6 C11.76 6.37 12.53 6.74 13.31 7.12 C15 8 15 8 16 10 C13.12 9.69 13.12 9.69 10 9 C9.34 8.01 8.68 7.02 8 6 C6.82 5.5 5.65 5.01 4.44 4.5 C3.3 4 2.17 3.51 1 3 C0.67 2.01 0.34 1.02 0 0 Z " fill="#8B33F2" transform="translate(849,570)"/>
<path d="M0 0 C1.59 2.39 2.65 4.31 3.69 6.94 C3.96 7.61 4.23 8.28 4.51 8.96 C5.08 11.33 4.76 12.72 4 15 C2 14 2 14 1.11 11.35 C0.72 9.72 0.72 9.72 0.31 8.06 C0.04 6.98 -0.23 5.9 -0.51 4.79 C-1 2 -1 2 0 0 Z " fill="#8B33F2" transform="translate(602,404)"/>
<path d="M0 0 C0.33 0.66 0.66 1.32 1 2 C0.53 2.74 0.05 3.49 -0.44 4.25 C-2.28 7.49 -2.4 9.33 -2 13 C-1.01 14.49 -1.01 14.49 0 16 C-3.88 15.12 -3.88 15.12 -5 14 C-5.87 8.08 -3.29 4.63 0 0 Z " fill="#8B33F2" transform="translate(689,270)"/>
<path d="M0 0 C1.01 0.08 2.02 0.16 3.06 0.25 C3.72 1.24 4.38 2.23 5.06 3.25 C3.06 3.25 1.06 3.25 -0.94 3.25 C-0.94 4.9 -0.94 6.55 -0.94 8.25 C-1.93 7.92 -2.92 7.59 -3.94 7.25 C-3.98 5.25 -3.98 3.25 -3.94 1.25 C-2.94 0.25 -2.94 0.25 0 0 Z " fill="#9633F1" transform="translate(561.9375,241.75)"/>
<path d="M0 0 C2.77 3.47 4.96 7.06 7 11 C6.67 11.66 6.34 12.32 6 13 C0.12 7.08 0.12 7.08 -0.38 2.56 C-0.25 1.72 -0.13 0.87 0 0 Z " fill="#8B33F2" transform="translate(724,92)"/>
<path d="M0 0 C6.75 1.62 6.75 1.62 9 5 C3.38 5.25 3.38 5.25 0 3 C0 2.01 0 1.02 0 0 Z " fill="#8E34F7" transform="translate(620,413)"/>
<path d="" fill="#5B1A9D" transform="translate(0,0)"/>
<path d="" fill="#33374B" transform="translate(0,0)"/>
</svg>
